<svg xmlns="http://www.w3.org/2000/svg" version="1.0" viewBox="0 0 1024 1024"><path d="M0 512v512h1024V0H0v512zm650.4-270.5c4.9 2.1 10.3 7 12.9 11.9l2.2 4.1v233l-2.2 4.1c-2.5 4.8-8.3 10.1-12.9 12-2.8 1.2-25.9 1.4-137.6 1.4-128.3 0-134.5-.1-138.3-1.9-5.3-2.4-10.2-7.3-12.6-12.4-1.8-4-1.9-8.6-1.8-119.2 0-105.8.1-115.3 1.7-119.2 2.2-5.4 4.7-8.4 10.1-11.9l4.5-2.9 46.5-.5c25.6-.3 86.5-.4 135.2-.2 75.9.2 89.2.4 92.3 1.7zM406.5 709.4c4.8 2.9 7.2 6 7.7 10.2.3 2.6 0 2.9-3 3.2-2.6.3-3.4-.1-4.1-2-2.4-6.2-11.2-10-18.3-7.9-7.6 2.3-11.1 7.6-8.9 13.4 1.1 2.7 7.5 6.7 11 6.7 1.1 0 2.2.4 2.5.9.3.4 2.3 1.1 4.3 1.4 4.3.7 10.7 3.9 13.9 6.9 3.2 2.8 4.5 9.2 3.3 15-2 9.2-12.1 14.6-25.3 13.6-10.6-.9-17.7-5.9-19.2-13.6-.6-3.2-.6-3.2 3.5-3.2 3.3 0 4.1.4 4.1 1.8 0 1 1.4 3.1 3 4.7 2.7 2.6 3.9 3 10.3 3.3 10.7.5 16.6-3.4 16.7-11.1 0-5.2-4.4-7.9-19.5-12.2-12.9-3.6-19-11.3-16.4-20.7 1.3-5 3-7.2 8-10.3 4.4-2.9 7.6-3.4 15.8-2.9 4.4.2 7.6 1.1 10.6 2.8zm-62.6.1c4.9 2.4 9.2 7.1 12.7 13.5 1.6 2.9 1.9 5.6 1.9 15.5 0 10.6-.3 12.6-2.4 16.8-4.7 9.4-12 14.5-22.2 15.4-12.4 1.2-21.9-4.3-27.3-15.6-2.8-6-3.1-7.5-3.1-16.6 0-8.9.3-10.6 2.8-15.7 5.5-11.3 12.4-15.7 24.5-15.8 6.9 0 9.1.4 13.1 2.5zm138.2-1.4c8.7 2.9 13.9 10.2 13.9 19.4 0 9.5-5.6 17-14.5 19.4-2.2.6-7.8 1.1-12.5 1.1h-8.5v22.5l-3.7.3-3.8.3V707h12.9c7 0 14.3.5 16.2 1.1zm33.9 14.8c0 .6-.4 1.3-1 1.6-.5.3-1 1.6-1 2.8 0 2.1.1 2.1 2.3-.4 3.1-3.6 5.9-4.9 10.6-4.9 4 0 4.1.1 4.1 3.5 0 3.3-.2 3.5-3.4 3.5-4.3 0-7.5 1.2-10.3 3.9-2.2 2.1-2.3 2.8-2.3 19.6V770h-8v-48h4.5c2.5 0 4.5.4 4.5.9zm121.6 1.7c1.7.8 4 3.2 5.2 5.3 2 3.5 2.2 5.3 2.2 19.3 0 9.7.4 15.8 1.1 16.5 1.9 1.9-1.1 5.3-4.8 5.3-3 0-3.3-.3-3.3-3.2v-3.2l-2.7 2.6c-4.1 3.8-6.6 4.8-12 4.8-9.8 0-16.9-7-16-15.8.8-7.5 6.2-11.1 19.7-13.1 11.3-1.7 11.3-1.7 10.7-5.8-.4-2-1.4-4.4-2.3-5.4-3.7-4.1-12.8-3.3-17.7 1.7-1.9 1.9-3.1 2.3-5.6 1.8-4.2-.9-4-2.9.8-7.4 6-5.8 16.5-7.2 24.7-3.4zm50.4.8c3.1 1.5 5.2 3.5 6.8 6.4 2.7 4.8 2.3 6.2-1.9 6.2-2.1 0-3.2-.7-4-2.3-2.6-5.7-10.9-8.1-16.9-5-7.5 3.9-10.6 17.3-6 26.3 5.1 10 17.9 10.6 22.9 1.2 1-1.8 1.9-2.2 4.4-2 2.8.3 3.2.6 2.9 2.8-.5 4.5-5.4 9.3-11.6 11.4-5 1.7-6.3 1.8-11.3.7-17.6-4-23.4-29.3-9.8-42.7 6.9-6.7 15.1-7.8 24.5-3zm-397 21.1V770h-8v-47h8v23.5zm256 0V770h-8v-47h8v23.5zm18-23.2c0 .1 2.3 6.7 5.1 14.7s5.6 16.2 6.2 18.2c.6 2.1 1.4 3.8 1.7 3.8.6 0 5-11.1 5-12.8 0-.7.4-2 1-3 1.3-2.5 7-18.6 7-20 0-.7 1.6-1.2 4-1.2 2.2 0 4 .5 4 1 0 .9-12.7 36.2-15 41.5-.4 1.1-1.1 2.8-1.4 3.7-.4 1.3-1.6 1.8-4.3 1.8-3.8 0-3.8-.1-6.1-6.3-1.3-3.4-2.7-7.1-3.2-8.2-1.6-3.7-12-32.3-12-32.9 0-.3 1.8-.6 4-.6s4 .1 4 .3zm149.4 6.4c1.4 3.8 3.4 9.5 4.5 12.8 2.8 8.4 5.7 16.4 6.2 17 .3.2 2-3.7 3.8-8.8s4.8-13.3 6.6-18.2l3.2-9 4.3-.3c3.2-.3 4.1 0 3.7 1-.2.7-1.7 4.4-3.2 8.3-1.5 3.8-3.1 7.9-3.5 9-1.3 3.2-8.5 22.3-11.6 30.9-2 5.4-4.1 9.2-6.6 11.8-3.5 3.5-4.2 3.8-9.3 3.8-5.7 0-6.2-.5-4.6-4.5.5-1.3 1.8-2 4-2.1 4-.2 6.8-2.7 8.2-7.4 1.4-4.5.9-6.1-11.8-39-1.4-3.6-2.9-7.7-3.3-9.3-.8-2.6-.7-2.7 3-2.7 3.8 0 3.8 0 6.4 6.7z"/><path d="M379.3 256c-2.3 1.3-3.5 3.1-4.3 6.1s-1 34.5-.5 114.8c.6 103.9.8 110.8 2.4 113.1l1.8 2.5 133.8.3 133.8.2 2.3-2.7 2.4-2.8v-227l-2.6-3-2.6-3-131.6-.3C385 254 382.4 254 379.3 256zm49.9 24.2c-1.1 2.3-2.7 6.3-3.7 8.8s-2.7 6.4-3.7 8.8c-3.2 7.2-3.4 9.9-.8 10.7 1.3.4 5.4 2.4 9.2 4.5l6.9 3.7-14.3 12.9c-7.9 7.1-15 13.6-15.8 14.4-.9.8-3.5 3.3-5.9 5.5-3.9 3.6-4.3 3.8-3.6 1.5.4-1.4 1.3-3.9 2-5.5 2.9-7 6.6-16.3 7.9-20.2l1.5-4.2-8.5-5.6c-4.7-3.1-8.4-6-8.2-6.5.5-1.6 38.3-34.9 38.6-34 .2.4-.6 2.8-1.6 5.2zm67.8 64.3v4.5h-46v-9h46v4.5zM320.4 716.9c-6.1 4.5-8.7 10-9.2 19.8-1 18.6 8.3 28.9 23.9 26.8 10.4-1.4 17.7-13 16.6-26.1-.7-8.2-1.6-11.3-4.6-15.6-3.9-5.5-8.6-7.8-16.3-7.8-5.5 0-7 .4-10.4 2.9zM461 727.5V741h9c13.6 0 18-3.3 18-13.5s-4.4-13.5-18-13.5h-9v13.5zm171.8 21.1c-.3.3-3.4.9-6.8 1.4-8.1 1.1-11 3.1-11 7.3 0 1.7.4 3.7.8 4.3 2.3 3.5 11.1 4.5 16.3 1.8 3.5-1.7 5.9-6.7 5.9-11.9 0-3-.3-3.5-2.3-3.5-1.3 0-2.6.3-2.9.6z"/></svg>
