<svg xmlns="http://www.w3.org/2000/svg" version="1.0" viewBox="0 0 1200 1200"><path d="M582.5 80.6C502.3 85.3 435.6 102.9 368 137 215.1 214.2 109.8 361.3 85.6 531.1c-3.8 26.9-4.9 42.3-4.9 68.9 0 79.4 19.1 158.4 56.3 232 77.2 152.9 224.3 258.2 394.1 282.4 26.9 3.8 42.3 4.9 68.9 4.9 79.4 0 158.4-19.1 232-56.3 152.9-77.2 258.2-224.3 282.4-394.1 3.8-26.9 4.9-42.3 4.9-68.9 0-79.4-19.1-158.4-56.3-232C981.8 207.3 823.8 99.7 644 82.6c-15.8-1.5-50.7-2.7-61.5-2zm108.7 348.3 3.3 2.9.3 81.1.2 81.1H505l.2-81.1.3-81.1 3.3-2.9 3.2-2.9h176l3.2 2.9zM592 672v13h-19v51h19v26h-71v-26h19v-51h-19v-26h71v13zm74.1-10.2c8.8 3.5 13.3 7.3 16.5 13.9 2.8 5.5 2.9 6.5 2.9 19.3s-.2 13.8-2.8 19.2c-5.4 11-14.8 15.8-32.4 16.6l-11.3.5V762h-33V658.8l27.3.4c25.3.4 27.6.5 32.8 2.6z"/><path d="M523.2 444.2c-.7.7-1.2 1.6-1.2 2 0 .4 35.1.8 78 .8s78-.4 78-.8c0-3.1-2.5-3.2-78-3.2-57.5 0-75.9.3-76.8 1.2zM522 521v56h156V465H522v56zm99.8-50.8c.7.7 1.2 3.9 1.2 7.1 0 5.4-1.5 9.6-15.1 43.1-20.3 49.7-17 44-25.2 44.4-8.6.4-9.7-.5-9.7-7.4 0-4.5 2.3-11 16.7-46.1 9.1-22.4 17.1-41.1 17.7-41.5 1.8-1.2 13.1-.9 14.4.4zm-46 22c1.8 1.8 1.5 12.3-.3 14.2-.9.8-3.8 2.7-6.5 4.2-2.8 1.5-4.8 3-4.4 3.3.3.3 2.9 2 5.7 3.7l5.2 3 .3 6.8c.4 8.6-.4 9.6-7.7 9.6-5.2 0-6.7-.6-19.9-8l-14.2-8.1v-6.8c0-5.1.4-7.2 1.6-8.2.9-.7 6.9-4.4 13.3-8.1 11.3-6.5 11.8-6.7 18.7-6.7 4.2-.1 7.5.4 8.2 1.1zm75 5.5c15.8 9 15.2 8.3 15.2 16.4v6.8l-14.2 8.1c-13.2 7.4-14.7 8-19.9 8-7.3 0-8.1-1-7.7-9.6l.3-6.8 5.9-3.4 5.9-3.5-3.9-2.3c-8.4-4.9-8.4-4.9-8.4-12.3 0-3.7.3-7.1.7-7.4.3-.4 3.7-.7 7.5-.7 6.6 0 7.3.2 18.6 6.7zM639 695v10.2l3.3-.6c4.2-.8 8-3.7 9.1-7 1.9-5.2-2.3-10.9-9.1-12.2l-3.3-.7V695z"/></svg>