<?xml version="1.0"?><svg version="1.2" baseProfile="tiny-ps" viewBox="0 0 900 900" xmlns="http://www.w3.org/2000/svg" xmlns:xlink="http://www.w3.org/1999/xlink"><title>iOS Privacy</title><g><g fill="#33af32" transform="matrix(.1 0 0 -.1 0 900)"><path d="M4245 8204c-774-62-1470-335-2065-808l-125-100-176-175-175-176-96-120c-440-554-703-1179-795-1890l-17-140v-590l17-140c92-709 355-1338 791-1885l100-125 175-176 176-175 125-100c547-436 1176-699 1885-791l140-17h590l140 17c709 92 1338 355 1885 791l125 100 176 175 175 176 96 120c440 554 703 1179 795 1890l17 140v590l-17 140c-92 709-355 1338-791 1885l-100 125-175 176-176 175-125 100c-539 429-1158 692-1850 785l-145 20-265 3c-146 2-287 2-315 0zm750-82c423-63 750-163 1116-343 251-123 447-247 674-427l120-95 176-176 176-176 95-120c180-227 304-423 427-674 183-373 285-713 348-1151l18-125v-670l-18-125c-100-704-347-1284-775-1825l-95-120-176-176-176-176-120-95c-235-186-430-309-698-438-370-178-693-275-1127-337l-125-18h-670l-125 18c-704 100-1284 347-1825 775l-120 95-176 176-176 176-95 120c-180 227-304 423-427 674-183 373-285 713-348 1151l-18 125v670l18 125c100 704 347 1284 775 1825l95 120 176 176 176 176 120 95c540 427 1154 688 1820 773 185 23 181 23 510 20l310-2 140-21zm-755-88c-732-64-1353-306-1930-750l-115-88-195-196-196-195-88-115c-408-530-641-1087-732-1755l-18-130v-610l18-130c91-668 324-1225 732-1755l88-115 196-195 195-196 115-88c530-408 1087-641 1755-732l130-18h610l130 18c668 91 1225 323 1755 732l115 88 195 196 196 195 88 115c408 530 641 1087 732 1755l18 130v610l-18 130c-96 700-351 1289-790 1825l-95 116-163 159-163 160-115 89c-523 405-1089 641-1750 732l-115 15-270 4c-148 1-290 1-315-1z"/></g><g fill="#000200" transform="matrix(.1 0 0 -.1 0 900)"><path d="M4245 8204c-774-62-1470-335-2065-808l-125-100-176-175-175-176-96-120c-440-554-703-1179-795-1890l-17-140v-590l17-140c92-709 355-1338 791-1885l100-125 175-176 176-175 125-100c547-436 1176-699 1885-791l140-17h590l140 17c709 92 1338 355 1885 791l125 100 176 175 175 176 96 120c440 554 703 1179 795 1890l17 140v590l-17 140c-92 709-355 1338-791 1885l-100 125-175 176-176 175-125 100c-539 429-1158 692-1850 785l-145 20-265 3c-146 2-287 2-315 0zm750-82c423-63 750-163 1116-343 251-123 447-247 674-427l120-95 176-176 176-176 95-120c180-227 304-423 427-674 183-373 285-713 348-1151l18-125v-670l-18-125c-100-704-347-1284-775-1825l-95-120-176-176-176-176-120-95c-235-186-430-309-698-438-370-178-693-275-1127-337l-125-18h-670l-125 18c-704 100-1284 347-1825 775l-120 95-176 176-176 176-95 120c-180 227-304 423-427 674-183 373-285 713-348 1151l-18 125v670l18 125c100 704 347 1284 775 1825l95 120 176 176 176 176 120 95c540 427 1154 688 1820 773 185 23 181 23 510 20l310-2 140-21zm-755-88c-732-64-1353-306-1930-750l-115-88-195-196-196-195-88-115c-408-530-641-1087-732-1755l-18-130v-610l18-130c91-668 324-1225 732-1755l88-115 196-195 195-196 115-88c530-408 1087-641 1755-732l130-18h610l130 18c668 91 1225 323 1755 732l115 88 195 196 196 195 88 115c408 530 641 1087 732 1755l18 130v610l-18 130c-96 700-351 1289-790 1825l-95 116-163 159-163 160-115 89c-523 405-1089 641-1750 732l-115 15-270 4c-148 1-290 1-315-1zm965-2190l25-27V4590H3770v1227l25 27 24 26h1362l24-26zm-1362-31l-13-5v-108h1340v108l-16 6c-19 7-1293 7-1311-1zm-13-668v-495h1340v990H3830v-495zm813 362l5-13-137-335-136-334h-40l-3 21-3 21 127 309c69 170 130 317 135 327l10 17h37l5-13zm-385-169c7-7 12-17 12-23v-11l-85-48c-47-26-85-51-85-54 0-4 33-25 72-47s77-46 84-53l13-13-5-14-6-15h-18c-19 0-205 102-230 126l-14 14 16 17c19 19 208 130 224 132 5 1 15-4 22-11zm614-48c58-33 112-67 119-76l12-15-14-14c-24-23-210-125-229-125h-18l-6 15-5 14 13 13c7 7 45 31 84 53s72 43 72 47-33 25-74 47c-40 23-79 48-86 56l-12 15 12 15c7 8 16 15 20 15 3 0 54-27 112-60z"/></g></g></svg>