<svg xmlns="http://www.w3.org/2000/svg" baseProfile="tiny-ps" version="1.2" viewBox="0 0 1024 1024">
  <title>iOS Privacy</title>
  <desc> BIMI logo for iOS Privacy </desc>
  <path d="M491.5 73.6c-1.6.2-9.3 1.1-17 1.9-46.7 5.1-89.2 16.3-130.5 34.2-12.4 5.4-33.3 15.7-40.8 20.2-2.9 1.7-5.5 3.1-5.7 3.1-.2 0-4.1 2.3-8.7 5.1-69.9 43.3-122.7 98.6-161.5 169.4-7.3 13.3-12.9 25-19.8 41.5-1.5 3.6-3.5 8.3-4.4 10.5-2.4 5.4-13.4 40.1-16 50-9.8 38.7-14.8 78.7-13.7 110C75.9 593.4 96.3 664.1 134 729c39.1 67.4 97.8 125.6 165.5 164 50.9 28.9 102.5 46 168 55.7 17.2 2.6 71.3 2.6 90 0 54.1-7.3 97.6-20.4 144-43.3 43.6-21.5 79.6-46.9 114.4-80.9 38.3-37.3 66.5-76 89.6-123 22.6-46.1 35.1-87.3 43.2-143.5 2.8-19.5 2.5-72.6-.5-94.5-9.6-69.4-32.4-130.6-70-188C798 153.2 659.9 76.1 516.5 73.5c-12.1-.2-23.3-.2-25 .1zm103.4 288.5 2.5 2 .4 73.5.5 73.4H427V364.1l2.6-2c2.7-2.1 3.2-2.1 82.8-2.1 78.9.1 80.1.1 82.5 2.1zM510 573.5V589h-16v35h16v31h-69v-31h16v-35h-16v-31h69v15.5zm63.7-12.3c6.7 2.5 9.7 4.9 13.1 10.6 2.7 4.6 2.7 5 2.7 21.7 0 15.6-.2 17.3-2.2 21.1-4.2 7.8-10.6 11.8-20.8 12.8-3.3.4-8.4.9-11.2 1.2l-5.3.5V655h-36.5v-97.2l27.5.7c23.5.6 28.3 1 32.7 2.7z" />
  <path d="M450 445.5V489h125v-87h-39v13h6.4c6.9 0 10.2 1.1 19.7 6.6 11 6.3 10.9 6.2 10.9 17.8v10.1l-10.3 5.8c-12.1 6.7-15.1 7.7-23.2 7.7-10.9 0-10.5.4-10.5-11.9 0-6.1.4-11.1 1-11.7.8-.8.7-1.4-.2-2.2-1-.8-2.8 2.6-8.2 16.1-3.7 9.5-8.4 20.7-10.4 25l-3.5 7.8-11.1-.3-11.1-.3V477c0-4.7.3-9.7.7-11.1.8-2.6.7-2.6-5.7-3.2-5.5-.5-8-1.5-17.5-6.9l-11-6.3.2-10.9.3-10.9 10.5-6.1 10.5-6.1 9.3-.3c14.7-.6 14.2-.9 14.2 10.3 0 8-.3 9.8-1.9 11.4-1.6 1.6-1.7 2.1-.6 2.5 1.7.6 1.6.8 5.4-8.4 1.6-4.1 5-12.3 7.4-18.3l4.5-10.7H450v43.5z" />
</svg>
