<?xml version="1.0"?><svg version="1.2" baseProfile="tiny-ps" viewBox="0 0 900 900" xmlns="http://www.w3.org/2000/svg" xmlns:xlink="http://www.w3.org/1999/xlink"><title>iOSPrivacy.com</title><g><g fill="#35b634" transform="matrix(.1 0 0 -.1 0 900)"><path d="M0 4500V0h9000v9000H0V4500z"/></g><g fill="#1e671d" transform="matrix(.1 0 0 -.1 0 900)"><path d="M4215 8205c-11-2-69-9-130-15-373-38-773-149-1128-312-125-57-156-72-322-166-310-174-672-472-926-762-149-170-328-418-421-585-94-166-109-197-166-322-161-350-262-714-314-1123l-13-105v-630l13-105c52-409 153-773 314-1123 57-125 72-156 166-322 174-310 472-672 762-926 170-149 418-328 585-421 166-94 197-109 322-166 350-161 714-262 1123-314l105-13h630l105 13c409 52 773 153 1123 314 125 57 156 72 322 166 167 93 415 272 585 421 290 254 588 616 762 926 94 166 109 197 166 322 161 350 262 714 314 1123l13 105v630l-13 105c-52 409-153 773-314 1123-57 125-72 156-166 322-174 310-472 672-762 926-170 149-418 328-585 421-166 94-197 109-322 166-339 156-688 255-1080 308l-118 16-305 3c-168 2-314 2-325 0zm755-84c821-112 1533-463 2110-1041 585-585 933-1297 1047-2145l17-130v-610l-17-130c-114-847-462-1561-1047-2145-585-585-1297-933-2145-1047l-130-17h-610l-130 17c-848 114-1560 462-2145 1047S987 3217 873 4065l-17 130v610l17 130c114 848 462 1560 1047 2145 584 585 1330 948 2145 1045 190 22 215 23 500 19l260-3 145-20zm-668-82c-515-27-1046-178-1505-429-155-85-368-228-522-351l-130-103-150-151-151-150-103-130c-478-600-740-1288-781-2048l-9-177 9-178c41-759 303-1447 781-2047l103-130 151-150 150-151 130-103c600-478 1293-742 2048-780l177-9 178 9c754 38 1447 302 2047 780l130 103 150 151 151 150 103 130c477 598 740 1289 780 2045l10 175-10 180c-38 758-302 1450-780 2050l-103 130-151 150-150 151-130 103c-521 415-1096 662-1760 756-92 13-467 38-500 33-5 0-79-5-163-9zm899-2198l29-29V4590H3770v1222l29 29 29 29h1344l29-29zm-1369-33l-12-12v-96h1360v96l-12 12-12 12H3844l-12-12zm-10-665l3-498h1350l3 498 2 497H3820l2-497zm816 356l3-16-126-309c-70-170-133-319-141-331l-14-22-15 5c-8 4-15 13-15 21 0 12 252 641 267 666 3 4 12 7 21 5l17-3 3-16zm-378-164l13-16-11-11c-7-7-48-33-93-59l-82-47 24-15c13-8 51-30 84-49l60-34 3-17 3-17-15-6-16-6-111 63-110 64 3 19 3 19 110 63c61 35 113 63 116 64 4 0 12-7 19-15zm658-74l72-42v-35l-110-63-110-63-16 6-15 6 3 17 3 17 60 34c33 19 71 41 84 49l24 15-87 50-86 50v36l13 5 12 4 40-22c22-12 73-41 113-64z"/></g><g fill="#010401" transform="matrix(.1 0 0 -.1 0 900)"><path d="M4285 8204c-795-50-1550-348-2160-855-128-106-368-346-474-474-463-558-746-1218-837-1955l-18-145v-550l18-145c91-737 374-1397 837-1955 106-128 346-368 474-474 558-463 1218-746 1955-837l145-18h550l145 18c737 91 1397 374 1955 837 128 106 368 346 474 474 463 558 746 1218 837 1955l18 145v550l-18 145c-91 737-374 1397-837 1955-106 128-346 368-474 474-552 458-1209 742-1925 832l-155 19-225 4c-124 2-252 2-285 0zm615-70c1420-155 2624-1130 3072-2489 80-243 132-480 164-750l16-140v-510l-16-140c-130-1107-709-2051-1631-2662-474-314-1015-509-1610-579l-140-16h-510l-140 16c-1239 146-2275 856-2854 1958-199 379-332 821-387 1283l-16 140v510l16 140c117 990 593 1853 1361 2467 583 466 1305 743 2055 788l135 8 175-5c96-2 236-11 310-19zm-725-109c-1165-109-2193-778-2765-1799-779-1391-528-3138 612-4252 1382-1352 3574-1352 4956 0 1140 1114 1391 2861 612 4252-685 1223-2024 1928-3415 1799zm1031-2178l24-28V4590H3770v1227l20 26 20 26 23 4c12 3 321 4 685 3l664-1 24-28zm-1369-44c-4-3-7-28-7-55v-48h1341l-3 53-3 52-661 3-661 2-6-7zm-7-658v-495h1340v990H3830v-495zm813 364l9-14-135-330-135-330-16-10-16-10-16 16-16 16 57 139c31 77 93 226 136 333 87 214 103 237 132 190zm-375-185l3-22-86-49-86-50 13-10c7-5 44-27 81-47l68-38 6-15 6-15-16-15-16-16-103 58c-113 63-138 82-138 101v12l113 66 112 66 20-2 20-3 3-21zm619-40l113-66v-12c0-19-25-37-138-101l-103-58-16 16-16 15 6 15 6 15 68 38c37 20 74 42 81 47l13 10-85 49-86 50v12c0 14 20 36 34 36 5 0 60-30 123-66z"/></g></g></svg>