<svg xmlns="http://www.w3.org/2000/svg" version="1.0" viewBox="0 0 1024 1024"><path d="M481.6 75.6c-38.5 3.6-77.9 12.3-111.6 24.6-97.5 35.5-179.2 102.6-232.2 190.8-35.1 58.4-56.1 123-62.3 192-4.4 48 2.7 104.3 19.7 157 36.9 114.2 117.6 208.8 224.3 262.7 60.9 30.8 129.8 47.8 192.5 47.6 53.9-.1 106.5-10.7 158.8-31.9C805.5 863.7 904.5 748.9 938.4 608c13.7-57 15.6-108.2 6.1-163.1-12.8-73.4-45-144.6-91.7-203.1-28.5-35.6-64.2-68.2-102.1-93.1-20.4-13.5-28.1-17.9-49.3-28.5C632.8 86 549.7 69.1 481.6 75.6zm113.7 285.9 2.7 2.4V512H425.9l.7-74.3c.6-72.9.7-74.2 2.7-76.5l2-2.2h80.6l80.6.1 2.8 2.4zm-84.5 212.2-.3 15.8-8.2.3-8.3.3v32.8l8.3.3 8.2.3v32l-35.2.3-35.3.2v-33h16v-33h-16v-32h71.1l-.3 15.7zm65-12.8c5.6 2.5 10.6 7.5 12.8 12.7 1 2.4 1.4 8.1 1.4 20.1 0 14.6-.2 17.2-2 20.8-4.6 9.4-12.3 13.5-27.2 14.3l-9.7.5-.3 13.1-.3 13.1h-38l-.3-48.9-.2-48.8 29.2.4c28.1.4 29.5.5 34.6 2.7z"/><path d="M451 415.7c0 11.1.2 13.4 1.3 12.1.6-.9 5.5-4.2 10.8-7.2l9.6-5.6h12c13.9 0 13.2-.6 13.3 11v6.5l2.1-4.5c1.1-2.5 3.3-7.7 4.9-11.5 1.5-3.9 3.5-8.7 4.4-10.8l1.6-3.7h-60v13.7zm86-7.8v5.8l7.1.6c5.8.5 8.6 1.4 15.7 5.2 4.8 2.6 9.9 6 11.5 7.6l2.7 2.9v-28h-37v5.9zm-13.2 42.4c-6.2 15.4-12.4 30-14.2 33.4l-1.7 3.3H497c-9.8 0-11-.2-12-1.9-1.2-2.4-1.3-13.5-.1-17.7l.9-3.1-5.5-.6c-5.2-.5-7.5-1.6-23.5-10.6l-5.8-3.3V488h123v-38.2l-5.7 3.3c-18.4 10.3-18.2 10.3-26.7 10.7-4.5.2-9.3-.1-10.8-.7-2.7-1-2.7-1.1-3-11.6l-.3-10.5-3.7 9.3z"/></svg>
