<svg xmlns="http://www.w3.org/2000/svg" xml:space="preserve" viewBox="0 0 1200 1200"><path fill="#36B635" d="M1 447V1h1200v1200H1V447m106.491104 190.151428c3.632156 24.527527 5.656777 49.420899 11.143036 73.526489 60.487457 265.770325 323.155472 431.989808 589.421463 373.487 278.098999-61.102783 447.882629-347.035156 368.447327-620.501648-74.505616-256.495209-337.175476-407.542557-596.677094-342.454277C252.231216 178.294357 90.3564 391.394073 107.491104 637.151428z"/><path fill="#020702" d="M107.437592 636.684326C90.3564 391.394073 252.231216 178.294357 479.825836 121.208992c259.501618-65.08828 522.171478 85.959068 596.677094 342.454277 79.435302 273.466492-90.348328 559.398865-368.447327 620.501648-266.265991 58.502808-528.934006-107.716675-589.421463-373.487-5.486259-24.10559-7.51088-48.998962-11.196548-73.993591m980.720001-28.184387c.812011-48.320007-5.342285-95.735962-18.756592-142.163879-72.313721-250.282471-327.48584-399.506501-580.942902-339.474984C230.688293 187.914078 62.088074 447.54422 127.867516 717.022217c62.400917 255.637085 314.312355 413.864136 572.269264 361.130737 222.083313-45.399902 385.162781-242.373169 388.020813-469.653015z"/><path fill="#35B334" d="M1088.152588 608.999695c-2.853027 226.78009-165.932495 423.753357-388.015808 469.153259-257.956909 52.733399-509.868347-105.493652-572.269264-361.130737C62.088074 447.54422 230.688293 187.914078 488.458099 126.861076c253.457062-60.031517 508.629181 89.192513 580.942902 339.474984 13.414307 46.427917 19.568603 93.843872 18.751587 142.663635M285.274567 249.760193C161.655396 361.782532 106.112312 526.97345 137.178177 690.214111c48.641785 255.596253 297.448044 424.003907 553.353134 374.544068 270.317871-52.245423 439.163635-324.486756 365.662048-589.581269-62.580017-225.704086-280.335083-371.553764-512.777649-342.883682-97.914611 12.077057-183.760833 51.538513-258.141143 117.466965z"/><path d="M285.53418 249.521164c74.120697-65.689423 159.966919-105.150879 257.88153-117.227936 232.442566-28.670082 450.197632 117.179596 512.777649 342.883682 73.501587 265.094513-95.344177 537.335846-365.662048 589.581269-255.90509 49.459839-504.711349-118.947815-553.353134-374.544068-31.065865-163.240661 24.477219-328.431579 148.356003-440.692947m282.965576 339.754349h129.912842c0-2.547303.000061-4.514649.000061-6.481995-.000367-50.135132.004699-100.270294-.005616-150.405456-.002136-10.480988-4.017211-14.55658-14.438964-14.56012-55.298523-.018829-110.597107-.018128-165.89563-.001862-10.444611.003083-14.477021 4.067078-14.479248 14.521515-.01062 50.135132-.005066 100.270264-.00528 150.405396v6.522278c21.688141 0 42.799957 0 64.911835.000244z"/><path fill="#35B334" d="M567.999756 589.275391c-21.611878-.000122-42.723694-.000122-64.411835-.000122v-6.522278c.000214-50.135132-.00534-100.270264.00528-150.405396.002227-10.454437 4.034637-14.518432 14.479248-14.521515 55.298523-.016266 110.597107-.016967 165.89563.001862 10.421753.00354 14.436828 4.079132 14.438964 14.56012.010315 50.135162.005249 100.270324.005616 150.405456 0 1.967346-.000061 3.934692-.000061 6.481995-43.703064 0-86.807923 0-130.412842-.000122M576.5 448.977783h-64.843018c-.161987 2.16275-.345001 3.470246-.34552 4.777802-.015808 40.988891.065003 81.978119-.119903 122.966156-.02179 4.825805 2.310272 4.876404 5.837433 4.872925 55.984741-.055237 111.969665-.091065 167.954101.059875 4.665406.012573 5.832398-1.432922 5.814453-5.945129-.160583-40.321778-.089599-80.64444-.106506-120.966828-.000732-1.779114-.192322-3.558197-.319641-5.76477-37.941406 0-75.406372 0-113.871399-.000031m49.999939-7.861297h63.836182c.166015-1.996766.319275-3.138916.34729-4.28415.27362-11.172393.267639-11.173278-10.70105-11.173339-52.990723-.000336-105.981384-.001099-158.972107.003082-1.832275.000122-3.898254-.469666-5.433472.219482-1.660522.745392-3.751556 2.436096-4.018524 3.994782-.600128 3.50357-.188141 7.180481-.188141 11.240082 38.525696 0 76.327759 0 115.129822.000061z"/><path fill="#010201" d="M577 448.977783c37.965027.000031 75.429993.000031 113.371399.000031.127319 2.206573.318909 3.985656.319641 5.76477.016907 40.322388-.054077 80.64505.106506 120.966828.017945 4.512207-1.149047 5.957702-5.814453 5.945129-55.984436-.15094-111.96936-.115112-167.954101-.059875-3.527161.003479-5.859223-.04712-5.837433-4.872925.184906-40.988037.104095-81.977265.119903-122.966156.000519-1.307556.183533-2.615052.34552-4.777802H577m27.091003 39.566132c-8.42987 20.64917-16.857299 41.299286-25.292663 61.946258-1.119263 2.739685-2.263245 5.730713 1.413879 7.201294 3.330872 1.332154 4.699585-1.29602 5.771546-3.920044 11.203735-27.42688 22.480407-54.824432 33.487182-82.330047.695435-1.737915.042053-5.411347-1.250793-6.264801-2.882263-1.902588-4.786194.489563-5.906861 3.242157-2.635986 6.474304-5.293212 12.939941-8.22229 20.125183m-36.841613 30.708954c-6.613587-3.786866-13.227173-7.573731-20.615662-11.804291 7.117798-4.076294 13.551575-7.770783 19.996033-11.446503 2.480346-1.414734 4.983764-3.355011 2.718445-6.129059-.993164-1.216217-4.693482-1.540771-6.338868-.684204-8.540466 4.445984-16.868957 9.311951-25.158569 14.221802-4.204102 2.490021-4.283447 5.504242-.187927 7.941223 8.421997 5.011383 16.916992 9.915253 25.572449 14.503937 1.420043.752869 3.811645-.326965 5.754211-.559815-.382813-1.872009-.765625-3.744079-1.740112-6.04309m85.396118-1.132874c4.029114-2.320129 8.118042-4.543579 12.067749-6.99176 3.011841-1.866821 3.874145-4.822662.691101-6.789215-9.034668-5.581879-18.314514-10.782837-27.681885-15.789459-1.123474-.600495-4.199768.442718-4.872925 1.597442-.623596 1.069458.382508 3.58374 1.373719 4.953064.893798 1.234711 2.72821 1.800141 4.16748 2.626312 5.432007 3.117981 10.87207 6.221985 16.977844 9.713684-7.216186 4.136231-13.800842 7.654541-20.055725 11.684754-1.471008.947876-2.916443 3.949585-2.470764 5.435913.907837 3.028076 3.724854 2.714844 6.186829 1.329956 4.341797-2.4422 8.654297-4.936462 13.616577-7.770691z"/><path fill="#000100" d="M625.999878 441.116455c-38.302002-.00003-76.104065-.00003-114.629761-.00003 0-4.059601-.411987-7.736512.188141-11.240082.266968-1.558686 2.358002-3.24939 4.018524-3.994782 1.535218-.689148 3.601197-.21936 5.433472-.219482 52.990723-.004181 105.981384-.003418 158.972107-.003082 10.968689.000061 10.97467.000946 10.70105 11.173339-.028015 1.145234-.181275 2.287384-.34729 4.28415-21.358216 0-42.597229 0-64.336243-.000031z"/><path fill="#34B033" d="M604.231201 488.185883c2.78888-6.82721 5.446106-13.292847 8.082092-19.767151 1.120667-2.752594 3.024598-5.144745 5.906861-3.242157 1.292846.853454 1.946228 4.526886 1.250793 6.264801-11.006775 27.505615-22.283447 54.903167-33.487182 82.330047-1.071961 2.624024-2.440674 5.252198-5.771546 3.920044-3.677124-1.470581-2.533142-4.461609-1.413879-7.201294 8.435364-20.646972 16.862793-41.297088 25.432861-62.30429zm-36.685974 31.280487c.67865 2.08551 1.061462 3.95758 1.444275 5.829589-1.942566.23285-4.334168 1.312684-5.754211.559815-8.655457-4.588684-17.150452-9.492554-25.572449-14.503937-4.09552-2.436981-4.016175-5.451202.187927-7.941223 8.289612-4.909851 16.618103-9.775818 25.158569-14.221802 1.645386-.856567 5.345704-.532013 6.338868.684204 2.265319 2.774048-.238099 4.714325-2.718445 6.129059-6.444458 3.67572-12.878235 7.370209-19.996033 11.446503 7.388489 4.23056 14.002075 8.017425 20.911499 12.017792zm84.781555-1.165467c-4.643554 2.653321-8.956054 5.147583-13.297851 7.589783-2.461975 1.384888-5.278992 1.69812-6.186829-1.329956-.445679-1.486328.999756-4.488037 2.470764-5.435913 6.254883-4.030213 12.839539-7.548523 20.055725-11.684754-6.105774-3.491699-11.545837-6.595703-16.977844-9.713684-1.43927-.826171-3.273682-1.391601-4.16748-2.626312-.991211-1.369324-1.997315-3.883606-1.373719-4.953064.673157-1.154724 3.749451-2.197937 4.872925-1.597442 9.367371 5.006622 18.647217 10.20758 27.681885 15.789459 3.183044 1.966553 2.32074 4.922394-.691101 6.789215-3.949707 2.448181-8.038635 4.671631-12.386475 7.172668z"/></svg>
