<svg version="1.1" id="Layer_1" xmlns="http://www.w3.org/2000/svg" xmlns:xlink="http://www.w3.org/1999/xlink" x="0px" y="0px"
	 width="100%" viewBox="0 0 1200 1200" enable-background="new 0 0 1200 1200" xml:space="preserve">
<path fill="#36B635" opacity="1.000000" stroke="none" 
	d="
M1.000000,447.000000 
	C1.000000,298.000000 1.000000,149.500000 1.000000,1.000000 
	C401.000000,1.000000 801.000000,1.000000 1201.000000,1.000000 
	C1201.000000,401.000000 1201.000000,801.000000 1201.000000,1201.000000 
	C801.000000,1201.000000 401.000000,1201.000000 1.000000,1201.000000 
	C1.000000,949.833313 1.000000,698.666687 1.000000,447.000000 
M107.491104,637.151428 
	C111.123260,661.678955 113.147881,686.572327 118.634140,710.677917 
	C179.121597,976.448242 441.789612,1142.667725 708.055603,1084.164917 
	C986.154602,1023.062134 1155.938232,737.129761 1076.502930,463.663269 
	C1001.997314,207.168060 739.327454,56.120712 479.825836,121.208992 
	C252.231216,178.294357 90.356400,391.394073 107.491104,637.151428 
z"/>
<path fill="#020702" opacity="1.000000" stroke="none" 
	d="
M107.437592,636.684326 
	C90.356400,391.394073 252.231216,178.294357 479.825836,121.208992 
	C739.327454,56.120712 1001.997314,207.168060 1076.502930,463.663269 
	C1155.938232,737.129761 986.154602,1023.062134 708.055603,1084.164917 
	C441.789612,1142.667725 179.121597,976.448242 118.634140,710.677917 
	C113.147881,686.572327 111.123260,661.678955 107.437592,636.684326 
M1088.157593,608.499939 
	C1088.969604,560.179932 1082.815308,512.763977 1069.401001,466.336060 
	C997.087280,216.053589 741.915161,66.829559 488.458099,126.861076 
	C230.688293,187.914078 62.088074,447.544220 127.867516,717.022217 
	C190.268433,972.659302 442.179871,1130.886353 700.136780,1078.152954 
	C922.220093,1032.753052 1085.299561,835.779785 1088.157593,608.499939 
z"/>
<path fill="#35B334" opacity="1.000000" stroke="none" 
	d="
M1088.152588,608.999695 
	C1085.299561,835.779785 922.220093,1032.753052 700.136780,1078.152954 
	C442.179871,1130.886353 190.268433,972.659302 127.867516,717.022217 
	C62.088074,447.544220 230.688293,187.914078 488.458099,126.861076 
	C741.915161,66.829559 997.087280,216.053589 1069.401001,466.336060 
	C1082.815308,512.763977 1088.969604,560.179932 1088.152588,608.999695 
M285.274567,249.760193 
	C161.655396,361.782532 106.112312,526.973450 137.178177,690.214111 
	C185.819962,945.810364 434.626221,1114.218018 690.531311,1064.758179 
	C960.849182,1012.512756 1129.694946,740.271423 1056.193359,475.176910 
	C993.613342,249.472824 775.858276,103.623146 543.415710,132.293228 
	C445.501099,144.370285 359.654877,183.831741 285.274567,249.760193 
z"/>
<path fill="#000000" opacity="1.000000" stroke="none" 
	d="
M285.534180,249.521164 
	C359.654877,183.831741 445.501099,144.370285 543.415710,132.293228 
	C775.858276,103.623146 993.613342,249.472824 1056.193359,475.176910 
	C1129.694946,740.271423 960.849182,1012.512756 690.531311,1064.758179 
	C434.626221,1114.218018 185.819962,945.810364 137.178177,690.214111 
	C106.112312,526.973450 161.655396,361.782532 285.534180,249.521164 
M568.499756,589.275513 
	C611.604675,589.275513 654.709534,589.275513 698.412598,589.275513 
	C698.412598,586.728210 698.412659,584.760864 698.412659,582.793518 
	C698.412292,532.658386 698.417358,482.523224 698.407043,432.388062 
	C698.404907,421.907074 694.389832,417.831482 683.968079,417.827942 
	C628.669556,417.809113 573.370972,417.809814 518.072449,417.826080 
	C507.627838,417.829163 503.595428,421.893158 503.593201,432.347595 
	C503.582581,482.482727 503.588135,532.617859 503.587921,582.752991 
	C503.587921,584.721680 503.587921,586.690369 503.587921,589.275269 
	C525.276062,589.275269 546.387878,589.275269 568.499756,589.275513 
z"/>
<path fill="#35B334" opacity="1.000000" stroke="none" 
	d="
M567.999756,589.275391 
	C546.387878,589.275269 525.276062,589.275269 503.587921,589.275269 
	C503.587921,586.690369 503.587921,584.721680 503.587921,582.752991 
	C503.588135,532.617859 503.582581,482.482727 503.593201,432.347595 
	C503.595428,421.893158 507.627838,417.829163 518.072449,417.826080 
	C573.370972,417.809814 628.669556,417.809113 683.968079,417.827942 
	C694.389832,417.831482 698.404907,421.907074 698.407043,432.388062 
	C698.417358,482.523224 698.412292,532.658386 698.412659,582.793518 
	C698.412659,584.760864 698.412598,586.728210 698.412598,589.275513 
	C654.709534,589.275513 611.604675,589.275513 567.999756,589.275391 
M576.500000,448.977783 
	C554.930603,448.977783 533.361267,448.977783 511.656982,448.977783 
	C511.494995,451.140533 511.311981,452.448029 511.311462,453.755585 
	C511.295654,494.744476 511.376465,535.733704 511.191559,576.721741 
	C511.169769,581.547546 513.501831,581.598145 517.028992,581.594666 
	C573.013733,581.539429 628.998657,581.503601 684.983093,581.654541 
	C689.648499,581.667114 690.815491,580.221619 690.797546,575.709412 
	C690.636963,535.387634 690.707947,495.064972 690.691040,454.742584 
	C690.690308,452.963470 690.498718,451.184387 690.371399,448.977814 
	C652.429993,448.977814 614.965027,448.977814 576.500000,448.977783 
M626.499939,441.116486 
	C647.738892,441.116486 668.977905,441.116486 690.336121,441.116486 
	C690.502136,439.119720 690.655396,437.977570 690.683411,436.832336 
	C690.957031,425.659943 690.951050,425.659058 679.982361,425.658997 
	C626.991638,425.658661 574.000977,425.657898 521.010254,425.662079 
	C519.177979,425.662201 517.112000,425.192413 515.576782,425.881561 
	C513.916260,426.626953 511.825226,428.317657 511.558258,429.876343 
	C510.958130,433.379913 511.370117,437.056824 511.370117,441.116425 
	C549.895813,441.116425 587.697876,441.116425 626.499939,441.116486 
z"/>
<path fill="#010201" opacity="1.000000" stroke="none" 
	d="
M577.000000,448.977783 
	C614.965027,448.977814 652.429993,448.977814 690.371399,448.977814 
	C690.498718,451.184387 690.690308,452.963470 690.691040,454.742584 
	C690.707947,495.064972 690.636963,535.387634 690.797546,575.709412 
	C690.815491,580.221619 689.648499,581.667114 684.983093,581.654541 
	C628.998657,581.503601 573.013733,581.539429 517.028992,581.594666 
	C513.501831,581.598145 511.169769,581.547546 511.191559,576.721741 
	C511.376465,535.733704 511.295654,494.744476 511.311462,453.755585 
	C511.311981,452.448029 511.494995,451.140533 511.656982,448.977783 
	C533.361267,448.977783 554.930603,448.977783 577.000000,448.977783 
M604.091003,488.543915 
	C595.661133,509.193085 587.233704,529.843201 578.798340,550.490173 
	C577.679077,553.229858 576.535095,556.220886 580.212219,557.691467 
	C583.543091,559.023621 584.911804,556.395447 585.983765,553.771423 
	C597.187500,526.344543 608.464172,498.946991 619.470947,471.441376 
	C620.166382,469.703461 619.513000,466.030029 618.220154,465.176575 
	C615.337891,463.273987 613.433960,465.666138 612.313293,468.418732 
	C609.677307,474.893036 607.020081,481.358673 604.091003,488.543915 
M567.249390,519.252869 
	C560.635803,515.466003 554.022217,511.679138 546.633728,507.448578 
	C553.751526,503.372284 560.185303,499.677795 566.629761,496.002075 
	C569.110107,494.587341 571.613525,492.647064 569.348206,489.873016 
	C568.355042,488.656799 564.654724,488.332245 563.009338,489.188812 
	C554.468872,493.634796 546.140381,498.500763 537.850769,503.410614 
	C533.646667,505.900635 533.567322,508.914856 537.662842,511.351837 
	C546.084839,516.363220 554.579834,521.267090 563.235291,525.855774 
	C564.655334,526.608643 567.046936,525.528809 568.989502,525.295959 
	C568.606689,523.423950 568.223877,521.551880 567.249390,519.252869 
M652.645508,518.119995 
	C656.674622,515.799866 660.763550,513.576416 664.713257,511.128235 
	C667.725098,509.261414 668.587402,506.305573 665.404358,504.339020 
	C656.369690,498.757141 647.089844,493.556183 637.722473,488.549561 
	C636.598999,487.949066 633.522705,488.992279 632.849548,490.147003 
	C632.225952,491.216461 633.232056,493.730743 634.223267,495.100067 
	C635.117065,496.334778 636.951477,496.900208 638.390747,497.726379 
	C643.822754,500.844360 649.262817,503.948364 655.368591,507.440063 
	C648.152405,511.576294 641.567749,515.094604 635.312866,519.124817 
	C633.841858,520.072693 632.396423,523.074402 632.842102,524.560730 
	C633.749939,527.588806 636.566956,527.275574 639.028931,525.890686 
	C643.370728,523.448486 647.683228,520.954224 652.645508,518.119995 
z"/>
<path fill="#000100" opacity="1.000000" stroke="none" 
	d="
M625.999878,441.116455 
	C587.697876,441.116425 549.895813,441.116425 511.370117,441.116425 
	C511.370117,437.056824 510.958130,433.379913 511.558258,429.876343 
	C511.825226,428.317657 513.916260,426.626953 515.576782,425.881561 
	C517.112000,425.192413 519.177979,425.662201 521.010254,425.662079 
	C574.000977,425.657898 626.991638,425.658661 679.982361,425.658997 
	C690.951050,425.659058 690.957031,425.659943 690.683411,436.832336 
	C690.655396,437.977570 690.502136,439.119720 690.336121,441.116486 
	C668.977905,441.116486 647.738892,441.116486 625.999878,441.116455 
z"/>
<path fill="#34B033" opacity="1.000000" stroke="none" 
	d="
M604.231201,488.185883 
	C607.020081,481.358673 609.677307,474.893036 612.313293,468.418732 
	C613.433960,465.666138 615.337891,463.273987 618.220154,465.176575 
	C619.513000,466.030029 620.166382,469.703461 619.470947,471.441376 
	C608.464172,498.946991 597.187500,526.344543 585.983765,553.771423 
	C584.911804,556.395447 583.543091,559.023621 580.212219,557.691467 
	C576.535095,556.220886 577.679077,553.229858 578.798340,550.490173 
	C587.233704,529.843201 595.661133,509.193085 604.231201,488.185883 
z"/>
<path fill="#34B033" opacity="1.000000" stroke="none" 
	d="
M567.545227,519.466370 
	C568.223877,521.551880 568.606689,523.423950 568.989502,525.295959 
	C567.046936,525.528809 564.655334,526.608643 563.235291,525.855774 
	C554.579834,521.267090 546.084839,516.363220 537.662842,511.351837 
	C533.567322,508.914856 533.646667,505.900635 537.850769,503.410614 
	C546.140381,498.500763 554.468872,493.634796 563.009338,489.188812 
	C564.654724,488.332245 568.355042,488.656799 569.348206,489.873016 
	C571.613525,492.647064 569.110107,494.587341 566.629761,496.002075 
	C560.185303,499.677795 553.751526,503.372284 546.633728,507.448578 
	C554.022217,511.679138 560.635803,515.466003 567.545227,519.466370 
z"/>
<path fill="#34B033" opacity="1.000000" stroke="none" 
	d="
M652.326782,518.300903 
	C647.683228,520.954224 643.370728,523.448486 639.028931,525.890686 
	C636.566956,527.275574 633.749939,527.588806 632.842102,524.560730 
	C632.396423,523.074402 633.841858,520.072693 635.312866,519.124817 
	C641.567749,515.094604 648.152405,511.576294 655.368591,507.440063 
	C649.262817,503.948364 643.822754,500.844360 638.390747,497.726379 
	C636.951477,496.900208 635.117065,496.334778 634.223267,495.100067 
	C633.232056,493.730743 632.225952,491.216461 632.849548,490.147003 
	C633.522705,488.992279 636.598999,487.949066 637.722473,488.549561 
	C647.089844,493.556183 656.369690,498.757141 665.404358,504.339020 
	C668.587402,506.305573 667.725098,509.261414 664.713257,511.128235 
	C660.763550,513.576416 656.674622,515.799866 652.326782,518.300903 
z"/>
</svg>