<?xml version="1.0" standalone="no"?>
<!DOCTYPE svg PUBLIC "-//W3C//DTD SVG 20010904//EN"
 "http://www.w3.org/TR/2001/REC-SVG-20010904/DTD/svg10.dtd">
<svg version="1.0" xmlns="http://www.w3.org/2000/svg"
 width="1000.000000pt" height="1000.000000pt" viewBox="0 0 1000.000000 1000.000000"
 preserveAspectRatio="xMidYMid meet">
<metadata>
Created by potrace 1.16, written by Peter Selinger 2001-2019
</metadata>
<g transform="translate(0.000000,1000.000000) scale(0.100000,-0.100000)"
fill="#000000" stroke="none">
<path d="M0 5000 l0 -5000 5000 0 5000 0 0 5000 0 5000 -5000 0 -5000 0 0
-5000z m8010 -5 l0 -4005 -3005 0 -3005 0 0 4005 0 4005 3005 0 3005 0 0
-4005z"/>
<path d="M2100 5995 l0 -2905 2905 0 2905 0 0 2905 0 2905 -2905 0 -2905 0 0
-2905z m3013 1510 c89 -14 145 -114 134 -242 -10 -129 -112 -207 -247 -188
-67 9 -125 49 -146 100 -34 83 -16 232 34 288 28 31 117 58 167 51 11 -2 37
-6 58 -9z m107 -1810 l0 -935 28 0 c15 0 158 -7 317 -15 160 -8 302 -15 318
-15 l27 0 0 -125 0 -125 -857 2 -858 3 -3 118 c-2 89 1 118 10 122 7 2 119 9
248 14 129 6 274 14 323 17 l87 7 0 792 0 793 -77 7 c-43 3 -91 9 -108 12 -16
3 -99 10 -182 16 l-153 10 0 119 0 118 440 0 440 0 0 -935z"/>
<path d="M2100 2040 l0 -950 2905 0 2905 0 0 950 0 950 -2905 0 -2905 0 0
-950z m1074 249 c45 -36 67 -94 67 -184 0 -66 -4 -89 -25 -132 -32 -65 -69
-87 -136 -81 -96 10 -132 65 -132 207 -1 151 39 211 141 211 44 0 65 -5 85
-21z m510 11 c3 -3 3 -16 -1 -29 -4 -15 -10 -20 -22 -16 -9 4 -41 9 -72 12
-48 5 -59 3 -78 -16 -11 -11 -21 -31 -21 -43 0 -25 27 -58 47 -58 7 0 13 -3
13 -8 0 -4 22 -15 49 -25 81 -28 96 -46 95 -110 0 -33 -6 -62 -15 -73 -23 -27
-74 -44 -136 -44 -86 0 -103 7 -103 41 0 29 15 40 22 17 3 -7 31 -12 77 -12
65 -1 75 2 92 23 43 52 16 91 -90 130 -68 25 -90 50 -97 108 -6 45 12 83 46
101 24 12 181 14 194 2z m888 0 c64 -18 81 -39 86 -107 4 -55 2 -63 -24 -92
-24 -26 -41 -33 -92 -42 -35 -5 -67 -7 -72 -4 -6 4 -10 -26 -10 -74 l0 -81
-30 0 -30 0 0 205 0 205 68 0 c37 0 84 -5 104 -10z m-1936 -222 c1 -70 5 -131
9 -137 3 -6 24 -11 46 -11 28 0 39 -4 39 -15 0 -12 -20 -15 -120 -15 -98 0
-120 3 -120 14 0 11 14 16 48 18 l47 3 0 115 0 115 -37 3 c-30 3 -38 7 -38 23
0 18 6 20 63 17 l62 -3 1 -127z m2314 103 l0 -29 29 29 c25 25 37 29 85 29 60
0 73 -9 56 -41 -9 -15 -15 -18 -23 -10 -21 21 -79 13 -109 -16 -27 -26 -28
-29 -28 -135 l0 -108 -30 0 -30 0 1 155 0 155 25 0 c20 0 24 -5 24 -29z m572
-108 l3 -138 48 -3 c33 -2 47 -7 47 -18 0 -11 -23 -14 -131 -14 -100 0 -130 3
-127 13 3 6 25 13 51 15 l47 3 0 120 0 119 -33 0 c-38 0 -48 6 -40 26 4 10 23
14 69 14 l63 0 3 -137z m350 115 c7 -13 13 -25 13 -28 1 -3 7 -17 13 -33 6
-15 22 -61 34 -102 13 -41 27 -74 32 -72 4 2 27 59 50 127 39 116 43 125 69
128 15 2 27 -1 27 -6 0 -15 -33 -107 -40 -112 -4 -3 -19 -41 -34 -85 -34 -104
-37 -107 -76 -103 -31 3 -35 7 -51 58 -10 30 -24 64 -30 74 -12 21 -59 154
-59 168 0 18 40 7 52 -14z m659 3 c23 -18 24 -26 27 -155 3 -131 3 -136 -16
-136 -12 0 -22 8 -24 17 -3 15 -4 15 -20 -1 -22 -21 -75 -31 -123 -22 -66 13
-84 106 -30 156 19 18 40 24 95 28 l70 5 0 30 c0 17 -8 36 -17 43 -22 16 -87
18 -115 3 -18 -10 -24 -8 -35 7 -13 17 -11 20 14 31 46 20 147 16 174 -6z
m503 13 c12 -4 13 -11 6 -24 -8 -15 -19 -17 -67 -13 -53 5 -60 3 -86 -22 -51
-52 -50 -140 3 -187 32 -30 63 -34 118 -19 30 9 32 8 32 -14 0 -20 -7 -25 -36
-31 -94 -17 -172 17 -192 84 -30 98 1 200 68 225 21 8 135 8 154 1z m289 -29
c5 -16 22 -59 39 -93 16 -35 32 -77 35 -93 6 -34 23 -49 23 -22 0 19 31 115
40 123 3 3 14 31 25 63 16 47 23 57 42 57 13 0 23 -4 23 -10 0 -5 -16 -51 -35
-102 -19 -51 -35 -98 -35 -103 0 -6 -8 -26 -19 -45 -10 -19 -26 -58 -35 -86
-26 -80 -64 -110 -131 -102 -18 2 -29 10 -31 21 -2 13 5 17 31 17 36 0 57 16
80 61 14 27 13 32 -14 91 -17 35 -43 99 -60 143 -16 44 -32 88 -36 98 -7 16
-3 18 20 15 22 -2 31 -10 38 -33z"/>
<path d="M3034 2239 c-26 -27 -29 -38 -33 -111 -5 -123 18 -177 80 -193 21 -5
34 0 60 23 33 30 34 32 38 123 4 108 -10 162 -46 178 -40 18 -68 13 -99 -20z"/>
<path d="M4460 2180 l0 -80 50 0 c66 0 90 23 90 84 0 56 -24 76 -92 76 l-48 0
0 -80z"/>
</g>
</svg>
