<svg width="1024pt" height="1024pt" version="1.0" viewBox="0 0 1024.000000 1024.000000" xmlns="http://www.w3.org/2000/svg">
<style>@media (prefers-color-scheme: dark) {
      :root {
        filter: invert(100%);
      }
    }</style>
<g transform="translate(0 1024) scale(.1 -.1)">
<path d="m0 5120v-5120h5120 5120v5120 5120h-5120-5120v-5120zm6504 2705c49-21 103-70 129-119l22-41v-1165-1165l-22-41c-25-48-83-101-129-120-28-12-259-14-1376-14-1283 0-1345 1-1383 19-53 24-102 73-126 124-18 40-19 86-18 1192 0 1058 1 1153 17 1192 22 54 47 84 101 119l45 29 465 5c256 3 865 4 1352 2 759-2 892-4 923-17zm-2439-4679c48-29 72-60 77-102 3-26 0-29-30-32-26-3-34 1-41 20-24 62-112 100-183 79-76-23-111-76-89-134 11-27 75-67 110-67 11 0 22-4 25-9 3-4 23-11 43-14 43-7 107-39 139-69 32-28 45-92 33-150-20-92-121-146-253-136-106 9-177 59-192 136-6 32-6 32 35 32 33 0 41-4 41-18 0-10 14-31 30-47 27-26 39-30 103-33 107-5 166 34 167 111 0 52-44 79-195 122-129 36-190 113-164 207 13 50 30 72 80 103 44 29 76 34 158 29 44-2 76-11 106-28zm-626-1c49-24 92-71 127-135 16-29 19-56 19-155 0-106-3-126-24-168-47-94-120-145-222-154-124-12-219 43-273 156-28 60-31 75-31 166 0 89 3 106 28 157 55 113 124 157 245 158 69 0 91-4 131-25zm1382 14c87-29 139-102 139-194 0-95-56-170-145-194-22-6-78-11-125-11h-85v-112-113l-37-3-38-3v320 321h129c70 0 143-5 162-11zm339-148c0-6-4-13-10-16-5-3-10-16-10-28 0-21 1-21 23 4 31 36 59 49 106 49 40 0 41-1 41-35 0-33-2-35-34-35-43 0-75-12-103-39-22-21-23-28-23-196v-175h-40-40v240 240h45c25 0 45-4 45-9zm1216-17c17-8 40-32 52-53 20-35 22-53 22-193 0-97 4-158 11-165 19-19-11-53-48-53-30 0-33 3-33 32v32l-27-26c-41-38-66-48-120-48-98 0-169 70-160 158 8 75 62 111 197 131 113 17 113 17 107 58-4 20-14 44-23 54-37 41-128 33-177-17-19-19-31-23-56-18-42 9-40 29 8 74 60 58 165 72 247 34zm504-8c31-15 52-35 68-64 27-48 23-62-19-62-21 0-32 7-40 23-26 57-109 81-169 50-75-39-106-173-60-263 51-100 179-106 229-12 10 18 19 22 44 20 28-3 32-6 29-28-5-45-54-93-116-114-50-17-63-18-113-7-176 40-234 293-98 427 69 67 151 78 245 30zm-3970-211v-235h-40-40v235 235h40 40v-235zm2560 0v-235h-40-40v235 235h40 40v-235zm180 232c0-1 23-67 51-147s56-162 62-182c6-21 14-38 17-38 6 0 50 111 50 128 0 7 4 20 10 30 13 25 70 186 70 200 0 7 16 12 40 12 22 0 40-5 40-10 0-9-127-362-150-415-4-11-11-28-14-37-4-13-16-18-43-18-38 0-38 1-61 63-13 34-27 71-32 82-16 37-120 323-120 329 0 3 18 6 40 6s40-1 40-3zm1494-64c14-38 34-95 45-128 28-84 57-164 62-170 3-2 20 37 38 88s48 133 66 182l32 90 43 3c32 3 41 0 37-10-2-7-17-44-32-83-15-38-31-79-35-90-13-32-85-223-116-309-20-54-41-92-66-118-35-35-42-38-93-38-57 0-62 5-46 45 5 13 18 20 40 21 40 2 68 27 82 74 14 45 9 61-118 390-14 36-29 77-33 93-8 26-7 27 30 27 38 0 38 0 64-67z"/>
<path d="m3793 7680c-23-13-35-31-43-61s-10-345-5-1148c6-1039 8-1108 24-1131l18-25 1338-3 1338-2 23 27 24 28v1135 1135l-26 30-26 30-1316 3c-1292 2-1318 2-1349-18zm499-242c-11-23-27-63-37-88s-27-64-37-88c-32-72-34-99-8-107 13-4 54-24 92-45l69-37-143-129c-79-71-150-136-158-144-9-8-35-33-59-55-39-36-43-38-36-15 4 14 13 39 20 55 29 70 66 163 79 202l15 42-85 56c-47 31-84 60-82 65 5 16 383 349 386 340 2-4-6-28-16-52zm678-643v-45h-230-230v45 45h230 230v-45z"/>
<path d="m3204 3071c-61-45-87-100-92-198-10-186 83-289 239-268 104 14 177 130 166 261-7 82-16 113-46 156-39 55-86 78-163 78-55 0-70-4-104-29z"/>
<path d="m4610 2965v-135h90c136 0 180 33 180 135s-44 135-180 135h-90v-135z"/>
<path d="m6328 2754c-3-3-34-9-68-14-81-11-110-31-110-73 0-17 4-37 8-43 23-35 111-45 163-18 35 17 59 67 59 119 0 30-3 35-23 35-13 0-26-3-29-6z"/>
</g>
</svg>