<svg version="1.0" xmlns="http://www.w3.org/2000/svg"
 width="2000.000000pt" height="2000.000000pt" viewBox="0 0 2000.000000 2000.000000"
 preserveAspectRatio="xMidYMid meet">
<g transform="translate(0.000000,2000.000000) scale(0.100000,-0.100000)"
fill="#000000" stroke="none">
<path d="M0 10000 l0 -10000 10000 0 10000 0 0 10000 0 10000 -10000 0 -10000
0 0 -10000z m16020 -10 l0 -8010 -6005 0 -6005 0 0 8010 0 8010 6005 0 6005 0
0 -8010z"/>
<path d="M4202 11993 l3 -5808 5807 -3 5808 -2 0 5810 0 5810 -5810 0 -5810 0
2 -5807z m6028 3017 c0 -5 16 -12 35 -16 19 -3 35 -10 35 -15 0 -5 9 -9 20 -9
11 0 20 -4 20 -10 0 -5 5 -10 10 -10 12 0 60 -45 60 -55 0 -4 7 -13 15 -22 9
-8 19 -29 22 -45 3 -16 12 -32 19 -35 9 -3 14 -21 14 -49 0 -24 5 -44 10 -44
6 0 10 -47 10 -120 0 -73 -4 -120 -10 -120 -5 0 -10 -14 -10 -31 0 -17 -7 -37
-15 -45 -8 -9 -15 -24 -15 -35 0 -10 -4 -19 -10 -19 -5 0 -10 -5 -10 -10 0
-14 -92 -106 -102 -103 -5 2 -8 -4 -8 -12 0 -8 -9 -15 -20 -15 -11 0 -20 -4
-20 -10 0 -5 -11 -10 -24 -10 -13 0 -26 -4 -28 -10 -1 -5 -34 -11 -73 -11 -38
-1 -78 -6 -89 -11 -12 -7 -22 -6 -29 1 -6 6 -35 11 -64 11 -29 0 -53 5 -53 10
0 6 -13 10 -30 10 -16 0 -30 5 -30 10 0 6 -7 10 -16 10 -19 0 -83 63 -110 109
-10 17 -22 31 -26 31 -4 0 -8 16 -8 35 0 19 -4 35 -10 35 -6 0 -10 30 -10 71
0 44 -4 68 -10 64 -6 -4 -10 10 -10 34 0 23 5 41 10 41 6 0 10 34 10 83 0 56
3 77 10 67 7 -11 10 -5 10 23 0 20 5 37 10 37 6 0 10 7 10 16 0 8 6 22 13 29
27 31 37 44 37 50 0 13 29 35 45 35 9 0 13 5 10 10 -3 6 -1 10 6 10 19 0 89
33 89 42 0 4 70 8 155 8 92 0 155 -4 155 -10z m202 -3617 l3 -1868 135 -3 c90
-2 130 -6 120 -12 -10 -6 67 -10 220 -11 134 0 224 -4 210 -9 -14 -5 75 -8
207 -9 159 -1 232 -4 235 -12 2 -7 47 -12 126 -13 l122 -1 0 -245 0 -245
-1710 0 -1710 0 0 241 0 241 153 6 c86 4 153 11 155 17 2 6 87 10 225 10 147
0 217 4 207 10 -10 6 50 10 178 10 121 0 192 4 192 10 0 6 43 10 110 10 l110
0 0 1590 0 1590 -59 0 c-33 0 -72 5 -88 11 -15 6 -82 13 -148 16 -66 3 -121
10 -123 14 -2 5 -74 9 -160 9 -105 0 -152 4 -142 10 10 6 -41 10 -152 10
l-168 0 0 245 0 245 875 0 875 0 2 -1867z"/>
<path d="M4207 5983 c-4 -3 -7 -861 -7 -1905 l0 -1898 5810 0 5810 0 0 1905 0
1905 -5803 0 c-3192 0 -5807 -3 -5810 -7z m2087 -1368 c3 -8 13 -15 22 -15 9
0 29 -13 44 -30 15 -16 33 -30 39 -30 6 0 11 -7 11 -15 0 -8 5 -15 10 -15 6 0
10 -9 10 -20 0 -11 5 -20 10 -20 6 0 10 -13 10 -29 0 -17 4 -32 9 -35 29 -18
29 -396 0 -396 -5 0 -9 -11 -9 -25 0 -14 -4 -25 -10 -25 -5 0 -10 -12 -10 -26
0 -14 -4 -23 -10 -19 -6 4 -10 -5 -10 -19 0 -15 -6 -26 -13 -26 -7 0 -19 -9
-27 -20 -8 -11 -22 -20 -32 -20 -10 0 -18 -4 -18 -10 0 -5 -9 -10 -20 -10 -11
0 -23 -7 -26 -15 -5 -12 -25 -15 -89 -15 -64 0 -84 3 -89 15 -3 8 -17 15 -32
15 -16 0 -37 11 -54 30 -15 17 -31 30 -35 30 -14 0 -35 29 -35 49 0 12 -4 21
-10 21 -5 0 -10 15 -10 34 0 19 -5 36 -11 38 -15 5 -15 391 0 396 6 2 11 17
11 33 0 16 5 29 10 29 6 0 10 9 10 20 0 11 5 20 10 20 6 0 10 7 10 15 0 8 5
15 11 15 6 0 24 14 39 30 15 17 35 30 44 30 9 0 16 7 16 15 0 12 19 15 109 15
88 0 110 -3 115 -15z m1026 0 c0 -10 10 -15 30 -15 34 0 35 -4 18 -60 -9 -27
-19 -40 -30 -40 -10 0 -18 5 -18 10 0 6 -16 10 -35 10 -19 0 -35 5 -35 10 0 6
-38 10 -95 10 -52 0 -95 -4 -95 -9 0 -5 -11 -12 -25 -15 -16 -4 -25 -13 -25
-26 0 -11 -7 -20 -15 -20 -12 0 -15 -13 -15 -55 0 -32 4 -55 11 -55 11 0 39
-25 39 -35 0 -14 30 -35 49 -35 12 0 21 -4 21 -10 0 -5 14 -10 30 -10 17 0 30
-4 30 -10 0 -5 11 -10 25 -10 14 0 25 -4 25 -10 0 -5 13 -10 29 -10 16 0 31
-6 35 -15 3 -8 13 -15 22 -15 24 0 84 -70 84 -97 0 -13 7 -26 15 -29 11 -4 15
-21 15 -56 0 -31 -6 -55 -15 -64 -8 -9 -15 -24 -15 -35 0 -23 -63 -89 -85 -89
-8 0 -15 -4 -15 -10 0 -5 -11 -10 -24 -10 -14 0 -31 -7 -40 -15 -11 -12 -42
-15 -139 -15 -102 0 -126 3 -131 15 -3 9 -18 15 -36 15 -29 0 -30 2 -30 45 0
25 1 48 2 53 3 9 32 3 36 -9 2 -5 24 -9 48 -9 24 0 44 -4 44 -10 0 -6 35 -10
85 -10 50 0 85 4 85 10 0 6 13 10 30 10 34 0 70 26 70 52 0 10 5 18 10 18 6 0
10 23 10 51 0 49 -15 79 -39 79 -6 0 -11 7 -11 16 0 11 -6 15 -20 11 -13 -3
-20 0 -20 9 0 8 -10 14 -25 14 -14 0 -25 5 -25 10 0 6 -13 10 -30 10 -16 0
-30 5 -30 10 0 6 -11 10 -25 10 -16 0 -25 6 -25 16 0 11 -6 15 -20 11 -13 -3
-20 0 -20 9 0 8 -9 14 -20 14 -22 0 -70 41 -70 60 0 5 -4 10 -10 10 -5 0 -10
14 -10 30 0 17 -4 30 -10 30 -5 0 -10 25 -10 55 0 30 5 55 10 55 6 0 10 14 10
30 0 30 37 80 60 80 5 0 10 5 10 10 0 6 9 10 20 10 10 0 25 7 32 15 19 22 298
22 298 0z m1762 5 c2 -6 27 -13 56 -17 28 -3 52 -10 52 -14 0 -5 9 -9 20 -9
11 0 20 -4 20 -10 0 -5 5 -10 11 -10 14 0 39 -25 39 -39 0 -6 5 -11 10 -11 6
0 10 -9 10 -20 0 -11 5 -20 10 -20 6 0 10 -40 10 -100 0 -60 -4 -100 -10 -100
-5 0 -10 -9 -10 -20 0 -11 -4 -20 -8 -20 -5 0 -15 -11 -22 -25 -7 -14 -18 -25
-24 -25 -7 0 -18 -9 -26 -20 -8 -11 -24 -20 -35 -20 -12 0 -25 -4 -30 -9 -6
-6 -59 -12 -120 -15 l-110 -5 -3 -151 -3 -150 -54 0 -55 0 0 410 0 410 134 0
c82 0 136 -4 138 -10z m-3812 -205 c0 -8 6 -15 13 -16 10 0 10 -2 0 -6 -20 -8
-18 -489 1 -509 10 -10 39 -14 100 -14 l86 0 0 -32 0 -33 -245 3 -245 3 0 29
0 30 86 0 c61 0 90 4 100 14 19 19 21 425 2 444 -7 7 -39 12 -75 12 l-63 0 0
45 0 45 120 0 c100 0 120 -2 120 -15z m4630 -45 c0 -33 4 -60 10 -60 6 0 10 7
10 15 0 8 5 15 11 15 5 0 30 20 55 45 l44 45 96 0 c69 0 99 -4 110 -14 16 -17
19 -56 4 -56 -5 0 -10 -11 -10 -24 0 -19 -4 -23 -20 -19 -11 3 -20 9 -20 14 0
5 -38 9 -84 9 l-84 0 -51 -48 -51 -48 0 -216 0 -216 -51 -4 c-28 -1 -53 -1
-55 1 -2 2 -4 143 -4 313 l0 308 45 0 45 0 0 -60z m1130 -210 c0 -233 2 -270
15 -270 8 0 15 -4 15 -10 0 -6 35 -10 84 -10 l84 0 4 -30 5 -30 -261 1 c-144
0 -255 3 -247 6 11 5 11 7 0 14 -10 6 -11 9 -1 9 6 0 12 7 12 15 0 12 17 15
90 15 l90 0 0 235 0 235 -61 0 c-39 0 -65 5 -75 14 -16 17 -19 46 -4 46 6 0
10 7 10 15 0 13 20 15 120 15 l120 0 0 -270z m696 253 c7 -10 14 -26 14 -35 0
-10 7 -18 15 -18 10 0 15 -11 15 -35 0 -19 5 -35 10 -35 6 0 10 -13 10 -30 0
-16 5 -30 10 -30 6 0 10 -16 10 -35 0 -19 5 -35 10 -35 6 0 10 -9 10 -20 0
-11 7 -23 15 -26 9 -4 15 -19 15 -35 0 -16 5 -29 10 -29 6 0 10 -16 10 -35 0
-19 4 -35 9 -35 6 0 11 -19 13 -42 2 -36 7 -44 26 -46 20 -3 22 1 22 42 0 25
5 46 10 46 6 0 10 16 10 35 0 19 5 35 10 35 6 0 10 14 10 30 0 17 5 30 10 30
6 0 10 11 10 25 0 14 6 25 13 25 7 0 14 14 15 33 2 17 7 34 12 35 6 2 10 19
10 38 0 21 4 33 10 29 6 -4 10 5 10 19 0 14 5 26 10 26 6 0 10 12 10 28 0 36
31 62 75 62 33 0 35 -2 35 -35 0 -19 -4 -35 -10 -35 -5 0 -10 -13 -10 -30 0
-16 -4 -30 -10 -30 -5 0 -10 -13 -10 -30 0 -16 -4 -30 -10 -30 -5 0 -10 -13
-10 -30 0 -20 -5 -30 -15 -30 -10 0 -15 -10 -15 -30 0 -16 -4 -30 -10 -30 -5
0 -10 -14 -10 -31 0 -17 -4 -28 -10 -24 -6 4 -10 -7 -10 -24 0 -17 -4 -31 -10
-31 -5 0 -10 -16 -10 -35 0 -24 -5 -35 -15 -35 -9 0 -15 -9 -15 -25 0 -14 -4
-25 -10 -25 -5 0 -10 -12 -10 -26 0 -40 -22 -54 -85 -54 -63 0 -85 14 -85 54
0 16 -6 26 -15 26 -9 0 -15 9 -15 25 0 14 -4 25 -10 25 -5 0 -10 14 -10 30 0
17 -4 30 -10 30 -5 0 -10 16 -10 35 0 19 -4 35 -10 35 -5 0 -10 9 -10 19 0 11
-4 23 -10 26 -5 3 -10 15 -10 25 0 10 -7 25 -15 34 -8 8 -15 28 -15 45 0 17
-4 31 -10 31 -5 0 -10 11 -10 25 0 14 -4 25 -10 25 -5 0 -10 14 -10 30 0 17
-4 30 -10 30 -5 0 -10 16 -10 35 0 34 1 35 36 35 23 0 42 -6 50 -17z m1288 2
c3 -8 12 -15 21 -15 23 0 65 -45 65 -70 0 -11 5 -20 10 -20 6 0 10 -91 10
-253 l0 -253 -40 4 c-37 4 -40 7 -40 33 0 37 -15 37 -49 0 -15 -16 -41 -32
-59 -36 -18 -3 -32 -11 -32 -16 0 -5 -34 -9 -75 -9 -41 0 -75 4 -75 9 0 5 -14
13 -32 16 -37 8 -58 27 -58 49 0 9 -4 16 -10 16 -5 0 -10 9 -10 19 0 11 -4 23
-10 26 -14 9 -13 71 3 114 14 42 49 81 72 81 9 0 18 7 21 15 4 9 19 15 35 15
16 0 29 5 29 10 0 6 45 10 115 10 l115 0 0 61 c0 56 -3 65 -30 90 -29 28 -34
29 -125 29 -57 0 -95 -4 -95 -10 0 -5 -9 -10 -20 -10 -11 0 -23 -7 -27 -16 -5
-13 -8 -12 -24 5 -11 11 -19 27 -19 36 0 8 -4 15 -10 15 -5 0 -10 5 -10 10 0
6 9 10 20 10 11 0 20 5 20 10 0 6 11 10 25 10 16 0 25 6 25 15 0 13 21 15 129
15 105 0 130 -3 135 -15z m1046 0 c0 -9 10 -15 23 -16 12 0 16 -3 10 -6 -7 -2
-13 -14 -13 -25 0 -35 -56 -71 -66 -43 -5 12 -26 15 -100 15 -52 0 -94 -4 -94
-8 0 -4 -16 -14 -35 -21 -27 -9 -35 -18 -35 -37 0 -15 -6 -24 -15 -24 -8 0
-15 -8 -15 -18 0 -10 -5 -23 -11 -29 -7 -7 -9 -42 -6 -94 6 -106 16 -149 33
-149 8 0 14 -9 14 -19 0 -11 9 -23 20 -26 11 -3 20 -11 20 -16 0 -5 11 -9 25
-9 14 0 25 -4 25 -10 0 -6 32 -10 75 -10 43 0 75 4 75 10 0 6 16 10 35 10 19
0 35 5 35 10 0 6 5 10 10 10 6 0 10 -22 10 -50 0 -43 -3 -50 -19 -50 -11 0
-26 -7 -35 -15 -11 -12 -40 -15 -125 -15 -92 0 -111 3 -111 15 0 8 -9 15 -20
15 -11 0 -20 5 -20 10 0 6 -9 10 -20 10 -11 0 -20 5 -20 10 0 6 -5 10 -10 10
-19 0 -60 48 -60 70 0 11 -6 20 -14 20 -9 0 -12 7 -9 19 2 10 -3 25 -11 34
-23 22 -23 209 -1 227 8 7 15 21 15 31 0 11 5 19 10 19 6 0 10 9 10 20 0 11 5
20 10 20 6 0 10 5 10 11 0 14 26 39 40 39 6 0 8 5 5 10 -3 6 1 10 9 10 9 0 16
5 16 10 0 6 9 10 20 10 10 0 25 7 32 15 19 21 278 22 278 0z m560 -5 c11 -11
20 -31 20 -45 0 -14 5 -25 10 -25 6 0 10 -16 10 -36 0 -21 4 -33 10 -29 6 4
10 -5 10 -19 0 -14 5 -26 10 -26 6 0 10 -11 10 -24 0 -14 7 -31 15 -40 8 -8
15 -24 15 -35 0 -12 5 -21 10 -21 6 0 10 -12 10 -26 0 -14 4 -23 10 -19 6 4
10 -8 10 -29 0 -20 5 -36 10 -36 6 0 10 -13 10 -29 0 -29 22 -61 41 -61 5 0 9
20 9 45 0 25 5 45 10 45 6 0 10 11 10 24 0 14 5 28 10 31 6 3 10 17 10 30 0
12 7 25 15 29 9 3 15 18 15 36 0 16 5 30 10 30 6 0 10 16 10 35 0 19 5 35 10
35 6 0 10 14 10 31 0 17 4 28 10 24 6 -4 10 7 10 24 0 19 5 31 13 31 7 0 14
12 15 27 3 33 17 43 65 43 36 0 37 -1 37 -35 0 -19 -4 -35 -10 -35 -5 0 -10
-11 -10 -25 0 -14 -4 -25 -10 -25 -5 0 -10 -13 -10 -30 0 -16 -4 -30 -10 -30
-5 0 -10 -11 -10 -25 0 -14 -4 -25 -10 -25 -5 0 -10 -13 -10 -30 0 -20 -5 -30
-15 -30 -10 0 -15 -11 -15 -35 0 -19 -4 -35 -10 -35 -5 0 -10 -9 -10 -20 0
-11 -4 -20 -10 -20 -5 0 -10 -16 -10 -35 0 -19 -4 -35 -10 -35 -5 0 -10 -14
-10 -30 0 -18 -6 -33 -15 -36 -8 -4 -15 -15 -15 -25 0 -10 -4 -19 -10 -19 -5
0 -10 -16 -10 -35 0 -19 -4 -35 -10 -35 -5 0 -10 -13 -10 -30 0 -16 -4 -30
-10 -30 -5 0 -10 -11 -10 -25 0 -14 -4 -25 -10 -25 -5 0 -10 -7 -10 -15 0 -9
-11 -26 -25 -39 -14 -13 -25 -31 -25 -40 0 -9 -8 -16 -20 -16 -11 0 -20 -4
-20 -10 0 -5 -11 -10 -25 -10 -14 0 -25 -6 -25 -12 0 -10 -20 -12 -75 -10
l-75 4 0 41 0 42 65 -3 c40 -2 65 0 65 6 0 6 10 12 23 14 14 2 23 11 25 26 2
12 8 22 13 22 5 0 9 9 9 20 0 11 5 20 10 20 6 0 10 11 10 25 0 14 5 25 10 25
6 0 10 11 10 25 0 14 -4 25 -10 25 -5 0 -10 9 -10 20 0 11 -4 20 -10 20 -5 0
-10 14 -10 30 0 17 -4 30 -10 30 -5 0 -10 11 -10 25 0 16 -6 25 -15 25 -9 0
-15 9 -15 25 0 14 -4 25 -10 25 -5 0 -10 14 -10 30 0 17 -4 30 -10 30 -5 0
-10 11 -10 25 0 14 -4 25 -10 25 -5 0 -10 14 -10 30 0 17 -4 30 -10 30 -5 0
-10 11 -10 25 0 16 -6 25 -15 25 -10 0 -15 11 -15 35 0 19 -4 35 -10 35 -5 0
-10 9 -10 20 0 11 -4 20 -10 20 -5 0 -10 11 -10 25 0 14 -6 25 -12 26 -10 0
-10 2 0 6 6 2 12 11 12 19 0 22 66 18 90 -6z"/>
<path d="M6120 4532 c0 -5 -11 -15 -25 -22 -14 -7 -25 -18 -25 -24 0 -7 -9
-18 -20 -26 -13 -9 -20 -26 -20 -47 0 -18 -4 -33 -10 -33 -6 0 -10 -65 -10
-175 0 -110 4 -175 10 -175 6 0 10 -11 10 -25 0 -14 5 -25 10 -25 6 0 10 -9
10 -20 0 -11 5 -20 10 -20 6 0 10 -5 10 -11 0 -17 27 -39 49 -39 12 0 21 -4
21 -10 0 -5 20 -10 45 -10 25 0 45 5 45 10 0 6 11 10 25 10 14 0 25 4 25 9 0
4 14 22 30 39 20 21 30 42 30 62 0 18 4 29 10 25 7 -4 10 60 10 185 0 125 -3
189 -10 185 -6 -4 -10 7 -10 24 0 17 -4 31 -10 31 -5 0 -10 8 -10 18 0 20 -33
52 -55 52 -8 0 -15 5 -15 10 0 6 -28 10 -65 10 -36 0 -65 -4 -65 -8z"/>
<path d="M8920 4360 l0 -160 89 0 c66 0 93 4 105 15 8 8 22 15 31 15 21 0 45
24 45 44 0 9 5 16 10 16 6 0 10 32 10 75 0 68 -2 78 -27 104 -44 44 -65 51
-167 51 l-96 0 0 -160z"/>
<path d="M12860 4080 c0 -5 -16 -10 -35 -10 -19 0 -35 -4 -35 -10 0 -5 -9 -10
-20 -10 -13 0 -20 -7 -20 -19 0 -10 -7 -21 -15 -25 -31 -11 -14 -77 31 -123
15 -16 164 -18 164 -3 0 6 7 10 16 10 22 0 44 25 44 49 0 12 6 21 15 21 12 0
15 14 15 65 l0 65 -80 0 c-47 0 -80 -4 -80 -10z"/>
</g>
</svg>
