<?xml version="1.0" standalone="no"?>
<!DOCTYPE svg PUBLIC "-//W3C//DTD SVG 20010904//EN"
 "http://www.w3.org/TR/2001/REC-SVG-20010904/DTD/svg10.dtd">
<svg version="1.0" xmlns="http://www.w3.org/2000/svg"
 width="30.720000pt" height="30.720000pt" viewBox="0 0 30.720000 30.720000"
 preserveAspectRatio="xMidYMid meet">
<metadata>
Created by potrace 1.16, written by Peter Selinger 2001-2019
</metadata>
<g transform="translate(0.000000,30.720000) scale(0.024000,-0.024000)"
fill="#000000" stroke="none">
<path d="M0 640 l0 -640 640 0 640 0 0 640 0 640 -640 0 -640 0 0 -640z m748
601 c13 -7 21 -18 19 -24 -5 -14 -425 -19 -433 -5 -3 5 1 17 10 27 14 15 37
17 198 16 127 -1 190 -5 206 -14z m-118 -312 l5 -144 65 -6 c36 -4 68 -5 73
-2 4 2 7 24 7 49 0 43 0 44 -34 44 -34 0 -47 13 -38 38 2 6 15 12 27 12 30 0
34 7 28 47 -4 25 -10 32 -31 35 -34 4 -44 38 -11 38 12 0 30 7 40 16 10 9 23
13 29 9 27 -17 61 -118 67 -199 6 -86 17 -106 59 -106 21 0 22 4 26 123 4 123
17 171 42 161 10 -4 15 -54 23 -202 5 -108 7 -205 5 -215 -4 -14 -11 -17 -31
-13 -14 3 -79 9 -143 12 l-117 7 -16 39 c-13 34 -74 86 -118 101 -7 2 -5 16 6
39 23 48 21 96 -3 136 -14 23 -18 38 -11 45 5 7 12 29 16 50 4 21 12 36 19 34
7 -2 13 -54 16 -148z m-438 105 c-1 -10 -5 -47 -9 -81 -14 -144 80 -240 165
-168 16 13 35 39 42 57 7 18 21 42 31 53 9 11 19 29 21 40 2 14 12 21 36 23
28 3 32 0 32 -22 0 -13 -5 -26 -11 -28 -8 -3 -4 -18 10 -47 22 -48 20 -61 -10
-61 -12 0 -19 7 -19 20 0 12 -9 30 -20 42 -22 24 -27 17 -32 -42 -2 -27 -9
-38 -33 -50 -85 -43 -105 -59 -105 -87 0 -47 -11 -53 -109 -60 l-93 -6 3 206
c2 113 7 208 11 212 9 9 70 24 83 20 6 -1 9 -11 7 -21z m562 -483 c11 -9 13
-18 7 -29 -7 -13 -38 -16 -192 -17 -101 -1 -248 -5 -326 -10 l-143 -8 0 26 c0
23 5 26 68 36 102 17 139 19 364 17 153 -1 210 -5 222 -15z"/>
</g>
</svg>
