<?xml version="1.0" encoding="UTF-8" standalone="no"?>
<svg
   xmlns:dc="http://purl.org/dc/elements/1.1/"
   xmlns:cc="http://creativecommons.org/ns#"
   xmlns:rdf="http://www.w3.org/1999/02/22-rdf-syntax-ns#"
   xmlns:svg="http://www.w3.org/2000/svg"
   xmlns="http://www.w3.org/2000/svg"
   id="svg8"
   preserveAspectRatio="xMidYMid meet"
   viewBox="0 0 622.8194 634.71851"
   height="634.71851pt"
   width="622.8194pt"
   version="1.0">
  <defs
     id="defs12" />
  <metadata
     id="metadata2">
Created by potrace 1.15, written by Peter Selinger 2001-2017
<rdf:RDF>
  <cc:Work
     rdf:about="">
    <dc:format>image/svg+xml</dc:format>
    <dc:type
       rdf:resource="http://purl.org/dc/dcmitype/StillImage" />
  </cc:Work>
</rdf:RDF>
</metadata>
  <g
     style="fill:#000000;stroke:none"
     id="g6"
     transform="matrix(0.1,0,0,-0.1,-40.580603,660)">
    <path
       id="path4"
       d="m 4386,6364 c -153,-130 -276,-232 -273,-227 2,4 31,51 62,103 100,164 128,240 88,240 -64,-1 -263,-145 -345,-250 l -28,-35 -57,63 c -32,34 -63,62 -70,62 -7,0 -14,-32 -19,-90 -4,-61 -11,-94 -22,-102 -11,-9 -64,-13 -186,-14 -115,0 -204,-6 -271,-18 -481,-83 -1048,-250 -1351,-397 -116,-56 -181,-109 -458,-367 -363,-341 -454,-462 -676,-902 -209,-417 -322,-668 -356,-796 -32,-117 -20,-486 22,-694 33,-160 122,-395 279,-730 145,-310 256,-498 348,-588 l 55,-54 -153,-311 C 819,940 733,749 723,698 c -5,-24 -2,-28 16,-28 35,0 152,64 299,163 176,118 268,192 329,263 26,32 60,70 76,86 l 27,30 58,-32 c 31,-18 127,-78 212,-133 85,-55 208,-133 272,-173 391,-246 954,-521 1159,-568 230,-53 928,-72 1099,-31 76,19 171,68 330,172 219,144 420,298 588,451 57,52 105,92 108,89 3,-3 31,-76 63,-164 58,-157 108,-271 135,-306 10,-13 21,-17 36,-12 27,9 154,127 192,179 38,53 38,117 -1,223 -36,99 -44,133 -32,133 6,0 43,-27 82,-60 40,-34 80,-59 88,-58 11,2 17,17 19,48 2,25 8,50 13,55 7,7 56,-37 147,-131 75,-78 169,-170 207,-204 72,-65 293,-216 302,-207 10,10 -49,173 -117,322 -37,83 -128,272 -200,420 -73,149 -159,330 -191,403 l -60,133 37,72 c 34,67 121,213 407,682 198,325 211,365 211,655 0,142 -5,241 -17,321 -44,296 -170,695 -278,882 -239,411 -935,1038 -1569,1412 -143,85 -220,149 -220,182 0,11 7,37 15,57 23,56 61,224 85,381 11,77 23,152 26,168 3,15 2,27 -3,27 -4,0 -133,-106 -287,-236 z m 55,-813 c 120,-41 380,-184 569,-312 242,-164 506,-398 643,-571 137,-173 232,-373 297,-628 44,-171 53,-362 22,-433 -13,-29 -28,-48 -39,-48 -35,-3 -100,3 -363,32 -312,34 -447,55 -477,75 -41,26 -634,1274 -803,1690 -39,96 -36,120 19,176 44,43 57,45 132,19 z M 3060,5348 c -80,-169 -728,-1428 -744,-1445 -6,-6 -860,49 -868,56 -8,7 223,410 312,543 294,440 591,688 1042,869 134,54 312,118 317,113 2,-1 -25,-63 -59,-136 z m 1064,-858 c 194,-574 236,-720 208,-720 -4,0 -43,29 -86,65 -43,36 -82,65 -87,65 -14,0 -11,-24 13,-105 12,-41 20,-77 17,-79 -3,-3 -72,3 -154,14 -83,10 -265,31 -405,46 -140,15 -257,28 -258,30 -2,1 132,255 298,564 166,308 304,560 305,558 1,-2 69,-199 149,-438 z M 1550,3549 c 140,-28 338,-74 428,-101 73,-21 74,-22 68,-52 -21,-103 -431,-914 -495,-980 -11,-10 -24,-15 -30,-11 -21,12 -83,148 -121,265 -118,360 -166,838 -91,901 22,18 51,15 241,-22 z m 2261,-454 c 354,-68 655,-128 668,-132 20,-7 55,-87 242,-552 120,-299 219,-550 219,-556 0,-19 -175,-101 -289,-135 -57,-18 -181,-50 -275,-71 -94,-22 -172,-42 -175,-45 -6,-6 -12,-1 126,-92 l 121,-80 -71,-20 c -90,-27 -274,-47 -587,-67 -528,-32 -578,-25 -950,140 -392,173 -817,408 -852,469 -4,8 10,42 34,82 115,193 478,725 516,756 13,11 15,10 9,-12 -21,-76 -67,-321 -67,-357 0,-55 13,-55 73,-3 58,51 165,212 302,455 172,303 205,345 275,345 20,0 326,-56 681,-125 z m 2034,-152 c -12,-51 -40,-88 -67,-91 -29,-4 -181,55 -173,67 2,5 33,11 67,14 35,3 81,13 103,21 64,23 78,21 70,-11 z m -127,-219 c 31,-9 28,-39 -10,-104 -38,-63 -78,-91 -105,-74 -21,13 -61,90 -69,133 -5,26 -3,32 17,40 27,11 132,14 167,5 z" />
  </g>
</svg>
