<?xml version="1.0" encoding="UTF-8" standalone="no"?>
<svg
   xmlns:dc="http://purl.org/dc/elements/1.1/"
   xmlns:cc="http://creativecommons.org/ns#"
   xmlns:rdf="http://www.w3.org/1999/02/22-rdf-syntax-ns#"
   xmlns:svg="http://www.w3.org/2000/svg"
   xmlns="http://www.w3.org/2000/svg"
   id="svg54"
   preserveAspectRatio="xMidYMid meet"
   viewBox="0 0 140.000000 220.000000"
   height="220.000000pt"
   width="140.000000pt"
   version="1.0">
  <metadata
     id="metadata60">
    <rdf:RDF>
      <cc:Work
         rdf:about="">
        <dc:format>image/svg+xml</dc:format>
        <dc:type
           rdf:resource="http://purl.org/dc/dcmitype/StillImage" />
      </cc:Work>
    </rdf:RDF>
  </metadata>
  <defs
     id="defs58" />
  <g
     id="g52"
     stroke="none"
     fill="#000000"
     transform="translate(0.000000,220.000000) scale(0.100000,-0.100000)">
    <path
       id="path2"
       d="M0 1100 l0 -1100 700 0 700 0 0 358 c-1 356 -1 357 -19 310 -10 -25 -28 -60 -40 -76 -20 -29 -21 -41 -21 -286 l0 -256 -620 0 -620 0 0 1035 0 1035 620 0 620 0 0 -541 c0 -536 0 -541 21 -571 12 -16 30 -51 40 -76 18 -46 18 -36 19 611 l0 657 -700 0 -700 0 0 -1100z" />
    <path
       id="path4"
       d="M140 1310 l0 -750 325 0 324 0 -30 45 -30 45 -250 0 -249 0 0 530 0 530 470 0 470 0 0 -294 0 -294 45 -25 45 -26 0 495 0 494 -560 0 -560 0 0 -750z m110 605 c0 -18 5 -25 20 -25 15 0 20 7 20 25 0 16 6 25 15 25 12 0 15 -14 15 -65 0 -51 -3 -65 -15 -65 -9 0 -15 9 -15 25 0 18 -5 25 -20 25 -15 0 -20 -7 -20 -25 0 -14 -4 -25 -10 -25 -6 0 -10 28 -10 65 0 37 4 65 10 65 6 0 10 -11 10 -25z m175 -27 c8 -28 15 -58 15 -65 0 -18 -19 -17 -26 2 -4 8 -13 15 -20 15 -8 0 -17 -7 -20 -15 -9 -22 -37 -19 -30 3 3 9 10 38 17 65 16 67 43 65 64 -5z m121 -15 c1 -66 -9 -79 -28 -38 -12 27 -28 24 -28 -6 0 -10 -4 -19 -10 -19 -6 0 -10 29 -10 66 l0 65 38 -3 37 -3 1 -62z m119 2 l0 -60 -42 -3 -43 -3 0 66 0 66 43 -3 42 -3 0 -60z m115 55 c0 -5 -11 -10 -25 -10 -16 0 -25 -6 -25 -15 0 -8 9 -15 20 -15 11 0 20 -5 20 -11 0 -6 -9 -13 -20 -16 -26 -7 -26 -21 0 -25 34 -5 23 -23 -15 -26 l-35 -3 0 65 0 66 40 0 c22 0 40 -4 40 -10z m69 -27 l20 -38 1 38 c0 26 4 37 13 35 16 -6 17 -120 0 -125 -6 -2 -21 13 -32 34 l-20 38 -1 -37 c0 -27 -4 -38 -15 -38 -12 0 -15 14 -15 65 0 77 18 87 49 28z m101 -28 c0 -37 -4 -65 -10 -65 -6 0 -10 28 -10 65 0 37 4 65 10 65 6 0 10 -28 10 -65z m120 52 c0 -7 -11 -29 -25 -50 l-26 -37 26 0 c16 0 25 -6 25 -15 0 -11 -11 -15 -40 -15 -46 0 -53 18 -20 60 25 32 25 40 0 40 -11 0 -20 7 -20 15 0 11 11 15 40 15 26 0 40 -5 40 -13z m100 3 c0 -5 -9 -10 -20 -10 -27 0 -26 -26 1 -33 23 -6 17 -27 -7 -27 -8 0 -14 -4 -14 -10 0 -5 9 -10 20 -10 11 0 20 -7 20 -15 0 -10 -11 -15 -35 -15 l-35 0 0 65 0 65 35 0 c19 0 35 -4 35 -10z" />
    <path
       id="path6"
       d="M387 1886 c-4 -10 -5 -21 -2 -24 9 -9 17 6 13 25 -3 17 -4 17 -11 -1z" />
    <path
       id="path8"
       d="M497 1913 c-13 -12 -7 -33 8 -33 8 0 15 9 15 20 0 20 -11 26 -23 13z" />
    <path
       id="path10"
       d="M610 1880 c0 -29 4 -40 15 -40 11 0 15 11 15 40 0 29 -4 40 -15 40 -11 0 -15 -11 -15 -40z" />
    <path
       id="path12"
       d="M566 1581 c-11 -17 -136 -375 -136 -388 0 -10 19 -13 71 -13 64 0 70 -2 64 -17 -7 -18 -90 -250 -126 -353 -14 -39 -16 -51 -6 -40 8 8 110 123 227 255 117 132 225 253 239 269 l26 29 -82 -6 c-46 -3 -83 -3 -83 0 0 2 52 62 115 133 63 71 115 131 115 134 0 10 -418 7 -424 -3z" />
    <path
       id="path14"
       d="M914 1076 c-112 -52 -174 -151 -174 -276 1 -125 50 -206 157 -261 59 -30 76 -34 142 -34 63 0 86 5 133 28 107 53 162 143 163 267 0 62 -5 85 -28 132 -56 115 -141 168 -267 168 -58 0 -87 -6 -126 -24z m273 -178 c13 -12 23 -26 23 -32 0 -6 -49 -61 -110 -121 l-110 -110 -65 65 c-36 35 -65 69 -65 75 0 6 14 24 30 40 l30 29 38 -37 38 -37 74 75 c41 41 79 75 84 75 5 0 20 -10 33 -22z" />
    <path
       id="path16"
       d="M158 449 c-21 -12 -24 -62 -5 -77 6 -5 23 -12 37 -14 33 -4 42 -48 10 -48 -11 0 -23 7 -26 15 -7 16 -34 21 -34 6 0 -31 14 -41 56 -41 37 0 46 4 55 24 16 34 -3 64 -47 72 -25 5 -34 11 -32 23 4 22 39 27 50 7 12 -21 28 -20 28 2 0 38 -51 55 -92 31z" />
    <path
       id="path18"
       d="M307 453 c-4 -3 -7 -42 -7 -85 l0 -78 50 0 c28 0 50 5 50 10 0 6 -13 10 -30 10 -25 0 -30 4 -30 25 0 20 5 25 25 25 16 0 25 6 25 15 0 9 -9 15 -25 15 -18 0 -25 5 -25 20 0 16 7 20 30 20 20 0 30 5 30 15 0 11 -11 15 -43 15 -24 0 -47 -3 -50 -7z" />
    <path
       id="path20"
       d="M456 444 c-18 -18 -22 -104 -6 -135 8 -14 21 -19 54 -19 44 0 56 10 56 46 0 21 -27 17 -33 -6 -3 -12 -14 -20 -26 -20 -19 0 -21 6 -21 60 0 54 2 60 20 60 11 0 23 -7 26 -15 9 -22 34 -18 34 5 0 37 -74 55 -104 24z" />
    <path
       id="path22"
       d="M600 387 c0 -83 8 -97 60 -97 52 0 60 14 60 97 0 57 -3 73 -15 73 -11 0 -15 -17 -17 -72 -3 -70 -4 -73 -28 -73 -24 0 -25 3 -28 73 -2 55 -6 72 -17 72 -12 0 -15 -16 -15 -73z" />
    <path
       id="path24"
       d="M770 375 c0 -69 3 -85 15 -85 10 0 15 10 15 30 0 19 5 30 14 30 7 0 19 -13 26 -30 7 -16 19 -30 26 -30 17 0 17 2 2 35 -9 19 -9 28 0 37 7 7 12 27 12 45 0 38 -21 53 -74 53 l-36 0 0 -85z m80 30 c0 -20 -5 -25 -25 -25 -20 0 -25 5 -25 25 0 20 5 25 25 25 20 0 25 -5 25 -25z" />
    <path
       id="path26"
       d="M930 375 c0 -69 3 -85 15 -85 12 0 15 16 15 85 0 69 -3 85 -15 85 -12 0 -15 -16 -15 -85z" />
    <path
       id="path28"
       d="M1000 445 c0 -8 9 -15 20 -15 18 0 20 -7 20 -70 0 -56 3 -70 15 -70 12 0 15 14 15 70 0 63 2 70 20 70 11 0 20 7 20 15 0 12 -13 15 -55 15 -42 0 -55 -3 -55 -15z" />
    <path
       id="path30"
       d="M1156 405 c13 -31 24 -69 24 -85 0 -20 5 -30 15 -30 9 0 15 9 15 25 0 13 11 50 25 81 29 67 29 64 10 64 -8 0 -22 -17 -31 -37 l-17 -38 -15 38 c-9 23 -21 37 -33 37 -16 0 -16 -4 7 -55z" />
    <path
       id="path32"
       d="M140 174 c0 -77 22 -86 30 -13 l5 44 8 -33 c9 -41 26 -38 43 9 l12 34 1 -52 c1 -29 6 -53 11 -53 6 0 10 28 10 65 0 57 -2 65 -19 65 -14 0 -21 -10 -26 -37 l-8 -38 -15 38 c-10 24 -21 37 -33 37 -17 0 -19 -8 -19 -66z" />
    <path
       id="path34"
       d="M307 234 c-12 -12 -8 -99 5 -112 16 -16 53 -15 67 2 7 8 11 36 9 63 -3 47 -4 48 -38 51 -20 2 -39 0 -43 -4z m61 -56 c-2 -35 -7 -43 -23 -43 -16 0 -21 8 -23 43 -3 39 -2 42 23 42 25 0 26 -3 23 -42z" />
    <path
       id="path36"
       d="M430 175 c0 -37 4 -65 10 -65 6 0 10 19 10 43 l1 42 25 -42 c14 -24 30 -43 35 -43 5 0 9 29 9 65 0 69 -17 90 -22 28 l-3 -38 -23 38 c-13 20 -28 37 -33 37 -5 0 -9 -29 -9 -65z" />
    <path
       id="path38"
       d="M560 175 c0 -37 4 -65 10 -65 6 0 10 28 10 65 0 37 -4 65 -10 65 -6 0 -10 -28 -10 -65z" />
    <path
       id="path40"
       d="M622 227 c11 -9 18 -31 20 -62 4 -71 28 -72 28 -1 0 43 3 56 15 56 8 0 15 5 15 10 0 6 -21 10 -47 10 -41 -1 -46 -2 -31 -13z" />
    <path
       id="path42"
       d="M730 181 c0 -51 3 -61 20 -66 11 -3 29 -3 40 0 17 5 20 15 20 66 l0 59 -40 0 -40 0 0 -59z m58 -3 c-2 -30 -8 -43 -18 -43 -10 0 -16 13 -18 43 -3 37 -1 42 18 42 19 0 21 -5 18 -42z" />
    <path
       id="path44"
       d="M850 175 c0 -49 3 -66 13 -63 6 3 13 14 15 26 4 29 16 28 30 -3 6 -14 16 -25 22 -25 13 0 13 6 -1 31 -7 15 -7 24 1 34 6 8 10 24 8 37 -2 19 -10 23 -45 26 l-43 3 0 -66z m60 25 c0 -11 -7 -20 -15 -20 -8 0 -15 9 -15 20 0 11 7 20 15 20 8 0 15 -9 15 -20z" />
    <path
       id="path46"
       d="M980 175 c0 -37 4 -65 10 -65 6 0 10 28 10 65 0 37 -4 65 -10 65 -6 0 -10 -28 -10 -65z" />
    <path
       id="path48"
       d="M1040 174 c0 -48 3 -65 13 -62 6 3 15 20 18 39 l5 34 19 -37 c10 -21 22 -38 27 -38 4 0 8 29 8 65 0 37 -4 65 -10 65 -5 0 -10 -17 -10 -37 l0 -38 -22 38 c-34 57 -48 49 -48 -29z" />
    <path
       id="path50"
       d="M1177 233 c-4 -3 -7 -28 -7 -55 0 -42 3 -50 26 -60 33 -15 58 -1 62 36 3 21 -1 26 -17 26 -22 0 -29 -16 -9 -22 15 -5 1 -28 -18 -28 -10 0 -14 12 -14 45 0 38 3 45 19 45 11 0 21 -6 24 -12 2 -7 8 -10 12 -6 4 4 5 14 2 23 -6 15 -67 22 -80 8z" />
  </g>
</svg>
