<?xml version="1.0" encoding="UTF-8" standalone="no"?><svg xmlns:dc="http://purl.org/dc/elements/1.1/" xmlns:cc="http://creativecommons.org/ns#" xmlns:rdf="http://www.w3.org/1999/02/22-rdf-syntax-ns#" xmlns:svg="http://www.w3.org/2000/svg" xmlns="http://www.w3.org/2000/svg"
   id="svg54"
   preserveAspectRatio="xMidYMid meet"
   viewBox="0 0 140 220"
   height="165pt"
   width="105pt"
   version="1.0"><metadata
     id="metadata60"><rdf:RDF><cc:Work
         rdf:about=""><dc:format>image/svg+xml</dc:format><dc:type
           rdf:resource="http://purl.org/dc/dcmitype/StillImage" /></cc:Work></rdf:RDF></metadata><defs
     id="defs58" /><g
     id="g52"
     transform="matrix(0.1,0,0,-0.1,0,220)"
     style="fill:#000000;stroke:none"><path
       id="path2"
       d="M 0,1100 V 0 h 700 700 v 358 c -1,356 -1,357 -19,310 -10,-25 -28,-60 -40,-76 -20,-29 -21,-41 -21,-286 V 50 H 700 80 v 1035 1035 h 620 620 v -541 c 0,-536 0,-541 21,-571 12,-16 30,-51 40,-76 18,-46 18,-36 19,611 v 657 H 700 0 Z" /><path
       id="path4"
       d="M 140,1310 V 560 h 325 324 l -30,45 -30,45 H 479 230 v 530 530 h 470 470 v -294 -294 l 45,-25 45,-26 v 495 494 H 700 140 Z m 110,605 c 0,-18 5,-25 20,-25 15,0 20,7 20,25 0,16 6,25 15,25 12,0 15,-14 15,-65 0,-51 -3,-65 -15,-65 -9,0 -15,9 -15,25 0,18 -5,25 -20,25 -15,0 -20,-7 -20,-25 0,-14 -4,-25 -10,-25 -6,0 -10,28 -10,65 0,37 4,65 10,65 6,0 10,-11 10,-25 z m 175,-27 c 8,-28 15,-58 15,-65 0,-18 -19,-17 -26,2 -4,8 -13,15 -20,15 -8,0 -17,-7 -20,-15 -9,-22 -37,-19 -30,3 3,9 10,38 17,65 16,67 43,65 64,-5 z m 121,-15 c 1,-66 -9,-79 -28,-38 -12,27 -28,24 -28,-6 0,-10 -4,-19 -10,-19 -6,0 -10,29 -10,66 v 65 l 38,-3 37,-3 z m 119,2 v -60 l -42,-3 -43,-3 v 66 66 l 43,-3 42,-3 z m 115,55 c 0,-5 -11,-10 -25,-10 -16,0 -25,-6 -25,-15 0,-8 9,-15 20,-15 11,0 20,-5 20,-11 0,-6 -9,-13 -20,-16 -26,-7 -26,-21 0,-25 34,-5 23,-23 -15,-26 l -35,-3 v 65 66 h 40 c 22,0 40,-4 40,-10 z m 69,-27 20,-38 1,38 c 0,26 4,37 13,35 16,-6 17,-120 0,-125 -6,-2 -21,13 -32,34 l -20,38 -1,-37 c 0,-27 -4,-38 -15,-38 -12,0 -15,14 -15,65 0,77 18,87 49,28 z m 101,-28 c 0,-37 -4,-65 -10,-65 -6,0 -10,28 -10,65 0,37 4,65 10,65 6,0 10,-28 10,-65 z m 120,52 c 0,-7 -11,-29 -25,-50 l -26,-37 h 26 c 16,0 25,-6 25,-15 0,-11 -11,-15 -40,-15 -46,0 -53,18 -20,60 25,32 25,40 0,40 -11,0 -20,7 -20,15 0,11 11,15 40,15 26,0 40,-5 40,-13 z m 100,3 c 0,-5 -9,-10 -20,-10 -27,0 -26,-26 1,-33 23,-6 17,-27 -7,-27 -8,0 -14,-4 -14,-10 0,-5 9,-10 20,-10 11,0 20,-7 20,-15 0,-10 -11,-15 -35,-15 h -35 v 65 65 h 35 c 19,0 35,-4 35,-10 z" /><path
       id="path6"
       d="m 387,1886 c -4,-10 -5,-21 -2,-24 9,-9 17,6 13,25 -3,17 -4,17 -11,-1 z" /><path
       id="path8"
       d="m 497,1913 c -13,-12 -7,-33 8,-33 8,0 15,9 15,20 0,20 -11,26 -23,13 z" /><path
       id="path10"
       d="m 610,1880 c 0,-29 4,-40 15,-40 11,0 15,11 15,40 0,29 -4,40 -15,40 -11,0 -15,-11 -15,-40 z" /><path
       id="path12"
       d="m 566,1581 c -11,-17 -136,-375 -136,-388 0,-10 19,-13 71,-13 64,0 70,-2 64,-17 -7,-18 -90,-250 -126,-353 -14,-39 -16,-51 -6,-40 8,8 110,123 227,255 117,132 225,253 239,269 l 26,29 -82,-6 c -46,-3 -83,-3 -83,0 0,2 52,62 115,133 63,71 115,131 115,134 0,10 -418,7 -424,-3 z" /><path
       id="path14"
       d="M 914,1076 C 802,1024 740,925 740,800 c 1,-125 50,-206 157,-261 59,-30 76,-34 142,-34 63,0 86,5 133,28 107,53 162,143 163,267 0,62 -5,85 -28,132 -56,115 -141,168 -267,168 -58,0 -87,-6 -126,-24 z m 273,-178 c 13,-12 23,-26 23,-32 0,-6 -49,-61 -110,-121 L 990,635 925,700 c -36,35 -65,69 -65,75 0,6 14,24 30,40 l 30,29 38,-37 38,-37 74,75 c 41,41 79,75 84,75 5,0 20,-10 33,-22 z" /><path
       id="path16"
       d="m 158,449 c -21,-12 -24,-62 -5,-77 6,-5 23,-12 37,-14 33,-4 42,-48 10,-48 -11,0 -23,7 -26,15 -7,16 -34,21 -34,6 0,-31 14,-41 56,-41 37,0 46,4 55,24 16,34 -3,64 -47,72 -25,5 -34,11 -32,23 4,22 39,27 50,7 12,-21 28,-20 28,2 0,38 -51,55 -92,31 z" /><path
       id="path18"
       d="m 307,453 c -4,-3 -7,-42 -7,-85 v -78 h 50 c 28,0 50,5 50,10 0,6 -13,10 -30,10 -25,0 -30,4 -30,25 0,20 5,25 25,25 16,0 25,6 25,15 0,9 -9,15 -25,15 -18,0 -25,5 -25,20 0,16 7,20 30,20 20,0 30,5 30,15 0,11 -11,15 -43,15 -24,0 -47,-3 -50,-7 z" /><path
       id="path20"
       d="m 456,444 c -18,-18 -22,-104 -6,-135 8,-14 21,-19 54,-19 44,0 56,10 56,46 0,21 -27,17 -33,-6 -3,-12 -14,-20 -26,-20 -19,0 -21,6 -21,60 0,54 2,60 20,60 11,0 23,-7 26,-15 9,-22 34,-18 34,5 0,37 -74,55 -104,24 z" /><path
       id="path22"
       d="m 600,387 c 0,-83 8,-97 60,-97 52,0 60,14 60,97 0,57 -3,73 -15,73 -11,0 -15,-17 -17,-72 -3,-70 -4,-73 -28,-73 -24,0 -25,3 -28,73 -2,55 -6,72 -17,72 -12,0 -15,-16 -15,-73 z" /><path
       id="path24"
       d="m 770,375 c 0,-69 3,-85 15,-85 10,0 15,10 15,30 0,19 5,30 14,30 7,0 19,-13 26,-30 7,-16 19,-30 26,-30 17,0 17,2 2,35 -9,19 -9,28 0,37 7,7 12,27 12,45 0,38 -21,53 -74,53 h -36 z m 80,30 c 0,-20 -5,-25 -25,-25 -20,0 -25,5 -25,25 0,20 5,25 25,25 20,0 25,-5 25,-25 z" /><path
       id="path26"
       d="m 930,375 c 0,-69 3,-85 15,-85 12,0 15,16 15,85 0,69 -3,85 -15,85 -12,0 -15,-16 -15,-85 z" /><path
       id="path28"
       d="m 1000,445 c 0,-8 9,-15 20,-15 18,0 20,-7 20,-70 0,-56 3,-70 15,-70 12,0 15,14 15,70 0,63 2,70 20,70 11,0 20,7 20,15 0,12 -13,15 -55,15 -42,0 -55,-3 -55,-15 z" /><path
       id="path30"
       d="m 1156,405 c 13,-31 24,-69 24,-85 0,-20 5,-30 15,-30 9,0 15,9 15,25 0,13 11,50 25,81 29,67 29,64 10,64 -8,0 -22,-17 -31,-37 l -17,-38 -15,38 c -9,23 -21,37 -33,37 -16,0 -16,-4 7,-55 z" /><path
       id="path32"
       d="m 140,174 c 0,-77 22,-86 30,-13 l 5,44 8,-33 c 9,-41 26,-38 43,9 l 12,34 1,-52 c 1,-29 6,-53 11,-53 6,0 10,28 10,65 0,57 -2,65 -19,65 -14,0 -21,-10 -26,-37 l -8,-38 -15,38 c -10,24 -21,37 -33,37 -17,0 -19,-8 -19,-66 z" /><path
       id="path34"
       d="m 307,234 c -12,-12 -8,-99 5,-112 16,-16 53,-15 67,2 7,8 11,36 9,63 -3,47 -4,48 -38,51 -20,2 -39,0 -43,-4 z m 61,-56 c -2,-35 -7,-43 -23,-43 -16,0 -21,8 -23,43 -3,39 -2,42 23,42 25,0 26,-3 23,-42 z" /><path
       id="path36"
       d="m 430,175 c 0,-37 4,-65 10,-65 6,0 10,19 10,43 l 1,42 25,-42 c 14,-24 30,-43 35,-43 5,0 9,29 9,65 0,69 -17,90 -22,28 l -3,-38 -23,38 c -13,20 -28,37 -33,37 -5,0 -9,-29 -9,-65 z" /><path
       id="path38"
       d="m 560,175 c 0,-37 4,-65 10,-65 6,0 10,28 10,65 0,37 -4,65 -10,65 -6,0 -10,-28 -10,-65 z" /><path
       id="path40"
       d="m 622,227 c 11,-9 18,-31 20,-62 4,-71 28,-72 28,-1 0,43 3,56 15,56 8,0 15,5 15,10 0,6 -21,10 -47,10 -41,-1 -46,-2 -31,-13 z" /><path
       id="path42"
       d="m 730,181 c 0,-51 3,-61 20,-66 11,-3 29,-3 40,0 17,5 20,15 20,66 v 59 h -40 -40 z m 58,-3 c -2,-30 -8,-43 -18,-43 -10,0 -16,13 -18,43 -3,37 -1,42 18,42 19,0 21,-5 18,-42 z" /><path
       id="path44"
       d="m 850,175 c 0,-49 3,-66 13,-63 6,3 13,14 15,26 4,29 16,28 30,-3 6,-14 16,-25 22,-25 13,0 13,6 -1,31 -7,15 -7,24 1,34 6,8 10,24 8,37 -2,19 -10,23 -45,26 l -43,3 z m 60,25 c 0,-11 -7,-20 -15,-20 -8,0 -15,9 -15,20 0,11 7,20 15,20 8,0 15,-9 15,-20 z" /><path
       id="path46"
       d="m 980,175 c 0,-37 4,-65 10,-65 6,0 10,28 10,65 0,37 -4,65 -10,65 -6,0 -10,-28 -10,-65 z" /><path
       id="path48"
       d="m 1040,174 c 0,-48 3,-65 13,-62 6,3 15,20 18,39 l 5,34 19,-37 c 10,-21 22,-38 27,-38 4,0 8,29 8,65 0,37 -4,65 -10,65 -5,0 -10,-17 -10,-37 v -38 l -22,38 c -34,57 -48,49 -48,-29 z" /><path
       id="path50"
       d="m 1177,233 c -4,-3 -7,-28 -7,-55 0,-42 3,-50 26,-60 33,-15 58,-1 62,36 3,21 -1,26 -17,26 -22,0 -29,-16 -9,-22 15,-5 1,-28 -18,-28 -10,0 -14,12 -14,45 0,38 3,45 19,45 11,0 21,-6 24,-12 2,-7 8,-10 12,-6 4,4 5,14 2,23 -6,15 -67,22 -80,8 z" /></g></svg>