<svg xmlns="http://www.w3.org/2000/svg" viewBox="0 0 225 300"><style>@media (prefers-color-scheme: dark){:root{filter:invert(100%)}}</style><defs><filter id="a" width="1" height="1" x="0" y="0" color-interpolation-filters="sRGB"><feColorMatrix result="fbSourceGraphic" values="2 -0.5 -0.5 0 0 -0.5 2 -0.5 0 0 -0.5 -0.5 2 0 0 0 0 0 1 0"/><feColorMatrix in="fbSourceGraphic" result="fbSourceGraphicAlpha" values="0 0 0 -1 0 0 0 0 -1 0 0 0 0 -1 0 0 0 0 1 0"/><feColorMatrix in="fbSourceGraphic" result="fbSourceGraphic" values="2 -0.5 -0.5 0 0 -0.5 2 -0.5 0 0 -0.5 -0.5 2 0 0 0 0 0 1 0"/><feColorMatrix in="fbSourceGraphic" result="fbSourceGraphicAlpha" values="0 0 0 -1 0 0 0 0 -1 0 0 0 0 -1 0 0 0 0 1 0"/><feColorMatrix in="fbSourceGraphic" result="fbSourceGraphic" values="2 -0.5 -0.5 0 0 -0.5 2 -0.5 0 0 -0.5 -0.5 2 0 0 0 0 0 1 0"/><feColorMatrix in="fbSourceGraphic" result="fbSourceGraphicAlpha" values="0 0 0 -1 0 0 0 0 -1 0 0 0 0 -1 0 0 0 0 1 0"/><feColorMatrix in="fbSourceGraphic" result="colormatrix" values="1 0 0 0 0 0 1 0 0 0 0 0 1 0 0 -1 0.5 0.5 1 0"/><feComposite in="colormatrix" in2="fbSourceGraphic" operator="in" result="composite1"/></filter></defs><g filter="url(#a)" transform="translate(-167.02083 31.536205) scale(.26458)"><path d="M0 110v110h140v-35.8c-.1-35.6-.1-35.7-1.9-31-1 2.5-2.8 6-4 7.6-2 2.9-2.1 4.1-2.1 28.6V215H8V8h124v54.1c0 53.6 0 54.1 2.1 57.1 1.2 1.6 3 5.1 4 7.6 1.8 4.6 1.8 3.6 1.9-61.1V0H0Z"/><path d="M14 89v75h64.9l-3-4.5-3-4.5H23V49h94v58.8l4.5 2.5 4.5 2.6V14H14Zm11-60.5c0 1.8.5 2.5 2 2.5s2-.7 2-2.5c0-1.6.6-2.5 1.5-2.5 1.2 0 1.5 1.4 1.5 6.5s-.3 6.5-1.5 6.5c-.9 0-1.5-.9-1.5-2.5 0-1.8-.5-2.5-2-2.5s-2 .7-2 2.5c0 1.4-.4 2.5-1 2.5s-1-2.8-1-6.5.4-6.5 1-6.5 1 1.1 1 2.5zm17.5 2.7C43.3 34 44 37 44 37.7c0 1.8-1.9 1.7-2.6-.2-.4-.8-1.3-1.5-2-1.5-.8 0-1.7.7-2 1.5-.9 2.2-3.7 1.9-3-.3.3-.9 1-3.8 1.7-6.5 1.6-6.7 4.3-6.5 6.4.5zm12.1 1.5c.1 6.6-.9 7.9-2.8 3.8-1.2-2.7-2.8-2.4-2.8.6 0 1-.4 1.9-1 1.9s-1-2.9-1-6.6v-6.5l3.8.3 3.7.3zm11.9-.2v6l-4.2.3-4.3.3V25.9l4.3.3 4.2.3zM78 27c0 .5-1.1 1-2.5 1-1.6 0-2.5.6-2.5 1.5 0 .8.9 1.5 2 1.5s2 .5 2 1.1c0 .6-.9 1.3-2 1.6-2.6.7-2.6 2.1 0 2.5 3.4.5 2.3 2.3-1.5 2.6l-3.5.3V26h4c2.2 0 4 .4 4 1zm6.9 2.7 2 3.8.1-3.8c0-2.6.4-3.7 1.3-3.5 1.6.6 1.7 12 0 12.5-.6.2-2.1-1.3-3.2-3.4l-2-3.8-.1 3.7c0 2.7-.4 3.8-1.5 3.8-1.2 0-1.5-1.4-1.5-6.5 0-7.7 1.8-8.7 4.9-2.8zM95 32.5c0 3.7-.4 6.5-1 6.5s-1-2.8-1-6.5.4-6.5 1-6.5 1 2.8 1 6.5zm12-5.2c0 .7-1.1 2.9-2.5 5l-2.6 3.7h2.6c1.6 0 2.5.6 2.5 1.5 0 1.1-1.1 1.5-4 1.5-4.6 0-5.3-1.8-2-6 2.5-3.2 2.5-4 0-4-1.1 0-2-.7-2-1.5 0-1.1 1.1-1.5 4-1.5 2.6 0 4 .5 4 1.3zm10-.3c0 .5-.9 1-2 1-2.7 0-2.6 2.6.1 3.3 2.3.6 1.7 2.7-.7 2.7-.8 0-1.4.4-1.4 1 0 .5.9 1 2 1s2 .7 2 1.5c0 1-1.1 1.5-3.5 1.5H110V26h3.5c1.9 0 3.5.4 3.5 1z"/><path d="M38.7 31.4c-.4 1-.5 2.1-.2 2.4.9.9 1.7-.6 1.3-2.5-.3-1.7-.4-1.7-1.1.1zm11-2.7c-1.3 1.2-.7 3.3.8 3.3.8 0 1.5-.9 1.5-2 0-2-1.1-2.6-2.3-1.3ZM61 32c0 2.9.4 4 1.5 4s1.5-1.1 1.5-4-.4-4-1.5-4-1.5 1.1-1.5 4zm-4.4 29.9C55.5 63.6 43 99.4 43 100.7c0 1 1.9 1.3 7.1 1.3 6.4 0 7 .2 6.4 1.7-.7 1.8-9 25-12.6 35.3-1.4 3.9-1.6 5.1-.6 4 .8-.8 11-12.3 22.7-25.5s22.5-25.3 23.9-26.9l2.6-2.9-8.2.6c-4.6.3-8.3.3-8.3 0 0-.2 5.2-6.2 11.5-13.3C93.8 67.9 99 61.9 99 61.6c0-1-41.8-.7-42.4.3zm34.8 50.5C80.2 117.6 74 127.5 74 140c.1 12.5 5 20.6 15.7 26.1 5.9 3 7.6 3.4 14.2 3.4 6.3 0 8.6-.5 13.3-2.8 10.7-5.3 16.2-14.3 16.3-26.7 0-6.2-.5-8.5-2.8-13.2-5.6-11.5-14.1-16.8-26.7-16.8-5.8 0-8.7.6-12.6 2.4zm27.3 17.8c1.3 1.2 2.3 2.6 2.3 3.2 0 .6-4.9 6.1-11 12.1l-11 11-6.5-6.5c-3.6-3.5-6.5-6.9-6.5-7.5 0-.6 1.4-2.4 3-4l3-2.9 3.8 3.7 3.8 3.7 7.4-7.5c4.1-4.1 7.9-7.5 8.4-7.5s2 1 3.3 2.2zM15.8 175.1c-2.1 1.2-2.4 6.2-.5 7.7.6.5 2.3 1.2 3.7 1.4 3.3.4 4.2 4.8 1 4.8-1.1 0-2.3-.7-2.6-1.5-.7-1.6-3.4-2.1-3.4-.6 0 3.1 1.4 4.1 5.6 4.1 3.7 0 4.6-.4 5.5-2.4 1.6-3.4-.3-6.4-4.7-7.2-2.5-.5-3.4-1.1-3.2-2.3.4-2.2 3.9-2.7 5-.7 1.2 2.1 2.8 2 2.8-.2 0-3.8-5.1-5.5-9.2-3.1zm14.9-.4c-.4.3-.7 4.2-.7 8.5v7.8h5c2.8 0 5-.5 5-1 0-.6-1.3-1-3-1-2.5 0-3-.4-3-2.5 0-2 .5-2.5 2.5-2.5 1.6 0 2.5-.6 2.5-1.5s-.9-1.5-2.5-1.5c-1.8 0-2.5-.5-2.5-2 0-1.6.7-2 3-2 2 0 3-.5 3-1.5 0-1.1-1.1-1.5-4.3-1.5-2.4 0-4.7.3-5 .7zm14.9.9c-1.8 1.8-2.2 10.4-.6 13.5.8 1.4 2.1 1.9 5.4 1.9 4.4 0 5.6-1 5.6-4.6 0-2.1-2.7-1.7-3.3.6-.3 1.2-1.4 2-2.6 2-1.9 0-2.1-.6-2.1-6s.2-6 2-6c1.1 0 2.3.7 2.6 1.5.9 2.2 3.4 1.8 3.4-.5 0-3.7-7.4-5.5-10.4-2.4zm14.4 5.7c0 8.3.8 9.7 6 9.7s6-1.4 6-9.7c0-5.7-.3-7.3-1.5-7.3-1.1 0-1.5 1.7-1.7 7.2-.3 7-.4 7.3-2.8 7.3s-2.5-.3-2.8-7.3c-.2-5.5-.6-7.2-1.7-7.2-1.2 0-1.5 1.6-1.5 7.3zm17 1.2c0 6.9.3 8.5 1.5 8.5 1 0 1.5-1 1.5-3 0-1.9.5-3 1.4-3 .7 0 1.9 1.3 2.6 3 .7 1.6 1.9 3 2.6 3 1.7 0 1.7-.2.2-3.5-.9-1.9-.9-2.8 0-3.7.7-.7 1.2-2.7 1.2-4.5 0-3.8-2.1-5.3-7.4-5.3H77Zm8-3c0 2-.5 2.5-2.5 2.5s-2.5-.5-2.5-2.5.5-2.5 2.5-2.5 2.5.5 2.5 2.5zm8 3c0 6.9.3 8.5 1.5 8.5s1.5-1.6 1.5-8.5-.3-8.5-1.5-8.5-1.5 1.6-1.5 8.5zm7-7c0 .8.9 1.5 2 1.5 1.8 0 2 .7 2 7 0 5.6.3 7 1.5 7s1.5-1.4 1.5-7c0-6.3.2-7 2-7 1.1 0 2-.7 2-1.5 0-1.2-1.3-1.5-5.5-1.5s-5.5.3-5.5 1.5zm15.6 4c1.3 3.1 2.4 6.9 2.4 8.5 0 2 .5 3 1.5 3 .9 0 1.5-.9 1.5-2.5 0-1.3 1.1-5 2.5-8.1 2.9-6.7 2.9-6.4 1-6.4-.8 0-2.2 1.7-3.1 3.7l-1.7 3.8-1.5-3.8c-.9-2.3-2.1-3.7-3.3-3.7-1.6 0-1.6.4.7 5.5zM14 202.6c0 7.7 2.2 8.6 3 1.3l.5-4.4.8 3.3c.9 4.1 2.6 3.8 4.3-.9l1.2-3.4.1 5.2c.1 2.9.6 5.3 1.1 5.3.6 0 1-2.8 1-6.5 0-5.7-.2-6.5-1.9-6.5-1.4 0-2.1 1-2.6 3.7l-.8 3.8-1.5-3.8c-1-2.4-2.1-3.7-3.3-3.7-1.7 0-1.9.8-1.9 6.6zm16.7-6c-1.2 1.2-.8 9.9.5 11.2 1.6 1.6 5.3 1.5 6.7-.2.7-.8 1.1-3.6.9-6.3-.3-4.7-.4-4.8-3.8-5.1-2-.2-3.9 0-4.3.4zm6.1 5.6c-.2 3.5-.7 4.3-2.3 4.3-1.6 0-2.1-.8-2.3-4.3-.3-3.9-.2-4.2 2.3-4.2s2.6.3 2.3 4.2zm6.2.3c0 3.7.4 6.5 1 6.5s1-1.9 1-4.3l.1-4.2 2.5 4.2c1.4 2.4 3 4.3 3.5 4.3s.9-2.9.9-6.5c0-6.9-1.7-9-2.2-2.8l-.3 3.8-2.3-3.8c-1.3-2-2.8-3.7-3.3-3.7s-.9 2.9-.9 6.5zm13 0c0 3.7.4 6.5 1 6.5s1-2.8 1-6.5-.4-6.5-1-6.5-1 2.8-1 6.5zm6.2-5.2c1.1.9 1.8 3.1 2 6.2.4 7.1 2.8 7.2 2.8.1 0-4.3.3-5.6 1.5-5.6.8 0 1.5-.5 1.5-1 0-.6-2.1-1-4.7-1-4.1.1-4.6.2-3.1 1.3zm10.8 4.6c0 5.1.3 6.1 2 6.6 1.1.3 2.9.3 4 0 1.7-.5 2-1.5 2-6.6V196h-8zm5.8.3c-.2 3-.8 4.3-1.8 4.3s-1.6-1.3-1.8-4.3c-.3-3.7-.1-4.2 1.8-4.2 1.9 0 2.1.5 1.8 4.2zm6.2.3c0 4.9.3 6.6 1.3 6.3.6-.3 1.3-1.4 1.5-2.6.4-2.9 1.6-2.8 3 .3.6 1.4 1.6 2.5 2.2 2.5 1.3 0 1.3-.6-.1-3.1-.7-1.5-.7-2.4.1-3.4.6-.8 1-2.4.8-3.7-.2-1.9-1-2.3-4.5-2.6l-4.3-.3Zm6-2.5c0 1.1-.7 2-1.5 2s-1.5-.9-1.5-2 .7-2 1.5-2 1.5.9 1.5 2zm7 2.5c0 3.7.4 6.5 1 6.5s1-2.8 1-6.5-.4-6.5-1-6.5-1 2.8-1 6.5zm6 .1c0 4.8.3 6.5 1.3 6.2.6-.3 1.5-2 1.8-3.9l.5-3.4 1.9 3.7c1 2.1 2.2 3.8 2.7 3.8.4 0 .8-2.9.8-6.5 0-3.7-.4-6.5-1-6.5-.5 0-1 1.7-1 3.7v3.8l-2.2-3.8c-3.4-5.7-4.8-4.9-4.8 2.9zm13.7-5.9c-.4.3-.7 2.8-.7 5.5 0 4.2.3 5 2.6 6 3.3 1.5 5.8.1 6.2-3.6.3-2.1-.1-2.6-1.7-2.6-2.2 0-2.9 1.6-.9 2.2 1.5.5.1 2.8-1.8 2.8-1 0-1.4-1.2-1.4-4.5 0-3.8.3-4.5 1.9-4.5 1.1 0 2.1.6 2.4 1.2.2.7.8 1 1.2.6.4-.4.5-1.4.2-2.3-.6-1.5-6.7-2.2-8-.8z"/></g></svg>
